<svg width="800" height="474" viewBox="0 0 800 474" fill="none" xmlns="http://www.w3.org/2000/svg">
<g id="Ready Main">
<rect id="Rectangle 5" x="-27" y="13" width="845" height="461" fill="#9492EC"/>
<path id="Rectangle 6" d="M-16 -14.4527L814.687 -15L815 460.011L-15.687 460.559L-16 -14.4527Z" fill="url(#paint0_linear)"/>
<g id="Rectangle 1" filter="url(#filter0_d)">
<rect x="-7" y="-11" width="813" height="70" fill="#9492EC"/>
</g>
<path id="Email Id: himanshubhardwaj0211@gmail.com" d="M440.359 39C439.057 39 438.406 38.4427 438.406 37.3281V33.1016C438.406 31.5859 438.656 30.3698 439.156 29.4531C440.031 27.849 441.245 27.0469 442.797 27.0469H444.891V27.125L444.305 28.375H442.797C441.828 28.375 441.062 28.9375 440.5 30.0625C440.208 30.6458 440.036 31.4375 439.984 32.4375H444.422V32.5156L443.836 33.7656H439.969V37.3281C439.969 37.5573 440.099 37.6719 440.359 37.6719H443.438C444.052 37.6719 444.438 37.3672 444.594 36.7578H444.672L445.844 37.3125C445.531 38.4375 444.729 39 443.438 39H440.359ZM452.039 39.3125V34.7031C452.039 33.75 451.932 33.0521 451.719 32.6094C451.385 31.9219 450.917 31.5781 450.312 31.5781C449.724 31.5781 449.255 31.9219 448.906 32.6094C448.688 33.0521 448.578 33.75 448.578 34.7031C448.578 35.5573 448.688 36.2552 448.906 36.7969C449.182 37.474 449.635 37.9245 450.266 38.1484L449.68 39.3125H449.602C448.706 38.9583 448.031 38.3047 447.578 37.3516C447.203 36.5651 447.016 35.6823 447.016 34.7031C447.016 33.6302 447.203 32.7474 447.578 32.0547C448.234 30.8516 449.146 30.25 450.312 30.25C451.349 30.25 452.185 30.7292 452.82 31.6875C453.456 30.7292 454.292 30.25 455.328 30.25C456.495 30.25 457.406 30.8516 458.062 32.0547C458.438 32.7474 458.625 33.6302 458.625 34.7031C458.625 35.7031 458.438 36.5859 458.062 37.3516C457.609 38.3047 456.935 38.9583 456.039 39.3125H455.961L455.375 38.1484C456.005 37.9245 456.458 37.474 456.734 36.7969C456.953 36.2552 457.062 35.5573 457.062 34.7031C457.062 33.75 456.953 33.0521 456.734 32.6094C456.391 31.9219 455.922 31.5781 455.328 31.5781C454.734 31.5781 454.266 31.9219 453.922 32.6094C453.708 33.0417 453.602 33.7396 453.602 34.7031V38.6094L452.117 39.3125H452.039ZM465.344 39.3125V38.2188C464.896 38.8385 464.336 39.151 463.664 39.1562C462.69 39.1562 461.932 38.862 461.391 38.2734C460.849 37.6849 460.578 36.9896 460.578 36.1875C460.578 35.3542 460.872 34.6458 461.461 34.0625C462.029 33.5 462.763 33.2188 463.664 33.2188C464.305 33.2188 464.854 33.5052 465.312 34.0781C465.219 33.2917 465.122 32.8021 465.023 32.6094C464.674 31.9219 464.206 31.5781 463.617 31.5781H461.797V31.5L462.391 30.25H463.617C464.784 30.25 465.693 30.8516 466.344 32.0547C466.719 32.7422 466.906 33.625 466.906 34.7031V38.6094L465.422 39.3125H465.344ZM462.094 36.1719C462.094 36.6406 462.234 37.0339 462.516 37.3516C462.802 37.6693 463.188 37.8281 463.672 37.8281C464.151 37.8281 464.552 37.6641 464.875 37.3359C465.177 37.0286 465.328 36.651 465.328 36.2031C465.328 35.7344 465.167 35.3411 464.844 35.0234C464.521 34.7057 464.133 34.5469 463.68 34.5469C463.195 34.5469 462.807 34.7083 462.516 35.0312C462.234 35.349 462.094 35.7292 462.094 36.1719ZM469.758 28.6797C469.576 28.4922 469.484 28.2682 469.484 28.0078C469.484 27.7422 469.576 27.5156 469.758 27.3281C469.94 27.1406 470.161 27.0469 470.422 27.0469C470.682 27.0469 470.904 27.1406 471.086 27.3281C471.268 27.5156 471.359 27.7422 471.359 28.0078C471.359 28.2682 471.268 28.4922 471.086 28.6797C470.904 28.8672 470.682 28.9609 470.422 28.9609C470.161 28.9609 469.94 28.8672 469.758 28.6797ZM469.641 39.3125V30.7969L471.125 30.0938H471.203V38.6094L469.719 39.3125H469.641ZM474.328 39.3125V27.5938L475.812 26.8906H475.891V38.6094L474.406 39.3125H474.328ZM485.266 39.3125V27.5938L486.75 26.8906H486.828V38.6094L485.344 39.3125H485.266ZM489.562 34.7031C489.562 33.6198 489.75 32.737 490.125 32.0547C490.776 30.8516 491.685 30.25 492.852 30.25C493.529 30.25 494.107 30.5234 494.586 31.0703V27.5938L496.07 26.8906H496.148V34.7031C496.148 35.7865 495.961 36.6693 495.586 37.3516C494.924 38.5547 494.013 39.1562 492.852 39.1562C491.706 39.1562 490.797 38.5547 490.125 37.3516C489.75 36.6797 489.562 35.7969 489.562 34.7031ZM491.125 34.7031C491.125 35.6823 491.232 36.3802 491.445 36.7969C491.799 37.4844 492.268 37.8281 492.852 37.8281C493.44 37.8281 493.909 37.4844 494.258 36.7969C494.477 36.3646 494.586 35.6667 494.586 34.7031C494.586 33.7396 494.477 33.0417 494.258 32.6094C493.914 31.9271 493.445 31.5859 492.852 31.5859C492.258 31.5859 491.789 31.9323 491.445 32.625C491.232 33.0573 491.125 33.75 491.125 34.7031ZM499.242 33.7891C499.06 33.6016 498.969 33.3776 498.969 33.1172C498.969 32.8516 499.06 32.625 499.242 32.4375C499.424 32.25 499.646 32.1562 499.906 32.1562C500.167 32.1562 500.388 32.25 500.57 32.4375C500.753 32.625 500.844 32.8516 500.844 33.1172C500.844 33.3776 500.753 33.6016 500.57 33.7891C500.388 33.9766 500.167 34.0703 499.906 34.0703C499.646 34.0703 499.424 33.9766 499.242 33.7891ZM499.242 38.875C499.06 38.6875 498.969 38.4635 498.969 38.2031C498.969 37.9375 499.06 37.7109 499.242 37.5234C499.424 37.3359 499.646 37.2422 499.906 37.2422C500.167 37.2422 500.388 37.3359 500.57 37.5234C500.753 37.7109 500.844 37.9375 500.844 38.2031C500.844 38.4635 500.753 38.6875 500.57 38.875C500.388 39.0625 500.167 39.1562 499.906 39.1562C499.646 39.1562 499.424 39.0625 499.242 38.875ZM510.062 39.3125V27.5938L511.547 26.8906H511.625V31.0625C512.104 30.5208 512.68 30.25 513.352 30.25C514.518 30.25 515.427 30.8516 516.078 32.0547C516.458 32.7474 516.648 33.6302 516.648 34.7031C516.648 35.7031 516.461 36.5859 516.086 37.3516C515.633 38.3047 514.958 38.9583 514.062 39.3125H513.984L513.398 38.1484C514.029 37.9245 514.482 37.474 514.758 36.7969C514.977 36.2552 515.086 35.5573 515.086 34.7031C515.086 33.7396 514.977 33.0417 514.758 32.6094C514.409 31.9219 513.938 31.5781 513.344 31.5781C512.755 31.5781 512.289 31.9219 511.945 32.6094C511.732 33.0417 511.625 33.7396 511.625 34.7031V38.6094L510.141 39.3125H510.062ZM519.508 28.6797C519.326 28.4922 519.234 28.2682 519.234 28.0078C519.234 27.7422 519.326 27.5156 519.508 27.3281C519.69 27.1406 519.911 27.0469 520.172 27.0469C520.432 27.0469 520.654 27.1406 520.836 27.3281C521.018 27.5156 521.109 27.7422 521.109 28.0078C521.109 28.2682 521.018 28.4922 520.836 28.6797C520.654 28.8672 520.432 28.9609 520.172 28.9609C519.911 28.9609 519.69 28.8672 519.508 28.6797ZM519.391 39.3125V30.7969L520.875 30.0938H520.953V38.6094L519.469 39.3125H519.391ZM528.711 39.3125V34.7031C528.711 33.75 528.604 33.0521 528.391 32.6094C528.057 31.9219 527.589 31.5781 526.984 31.5781C526.396 31.5781 525.927 31.9219 525.578 32.6094C525.359 33.0521 525.25 33.75 525.25 34.7031C525.25 35.5573 525.359 36.2552 525.578 36.7969C525.854 37.474 526.307 37.9245 526.938 38.1484L526.352 39.3125H526.273C525.378 38.9583 524.703 38.3047 524.25 37.3516C523.875 36.5651 523.688 35.6823 523.688 34.7031C523.688 33.6302 523.875 32.7474 524.25 32.0547C524.906 30.8516 525.818 30.25 526.984 30.25C528.021 30.25 528.857 30.7292 529.492 31.6875C530.128 30.7292 530.964 30.25 532 30.25C533.167 30.25 534.078 30.8516 534.734 32.0547C535.109 32.7474 535.297 33.6302 535.297 34.7031C535.297 35.7031 535.109 36.5859 534.734 37.3516C534.281 38.3047 533.607 38.9583 532.711 39.3125H532.633L532.047 38.1484C532.677 37.9245 533.13 37.474 533.406 36.7969C533.625 36.2552 533.734 35.5573 533.734 34.7031C533.734 33.75 533.625 33.0521 533.406 32.6094C533.062 31.9219 532.594 31.5781 532 31.5781C531.406 31.5781 530.938 31.9219 530.594 32.6094C530.38 33.0417 530.273 33.7396 530.273 34.7031V38.6094L528.789 39.3125H528.711ZM542.016 39.3125V38.2188C541.568 38.8385 541.008 39.151 540.336 39.1562C539.362 39.1562 538.604 38.862 538.062 38.2734C537.521 37.6849 537.25 36.9896 537.25 36.1875C537.25 35.3542 537.544 34.6458 538.133 34.0625C538.701 33.5 539.435 33.2188 540.336 33.2188C540.977 33.2188 541.526 33.5052 541.984 34.0781C541.891 33.2917 541.794 32.8021 541.695 32.6094C541.346 31.9219 540.878 31.5781 540.289 31.5781H538.469V31.5L539.062 30.25H540.289C541.456 30.25 542.365 30.8516 543.016 32.0547C543.391 32.7422 543.578 33.625 543.578 34.7031V38.6094L542.094 39.3125H542.016ZM538.766 36.1719C538.766 36.6406 538.906 37.0339 539.188 37.3516C539.474 37.6693 539.859 37.8281 540.344 37.8281C540.823 37.8281 541.224 37.6641 541.547 37.3359C541.849 37.0286 542 36.651 542 36.2031C542 35.7344 541.839 35.3411 541.516 35.0234C541.193 34.7057 540.805 34.5469 540.352 34.5469C539.867 34.5469 539.479 34.7083 539.188 35.0312C538.906 35.349 538.766 35.7292 538.766 36.1719ZM545.922 39.3125V34.7031C545.922 33.6198 546.109 32.737 546.484 32.0547C547.135 30.8516 548.044 30.25 549.211 30.25C550.378 30.25 551.286 30.8516 551.938 32.0547C552.318 32.7474 552.508 33.6302 552.508 34.7031C552.508 35.7031 552.32 36.5859 551.945 37.3516C551.492 38.3047 550.818 38.9583 549.922 39.3125H549.844L549.258 38.1484C549.888 37.9245 550.341 37.474 550.617 36.7969C550.836 36.2552 550.945 35.5573 550.945 34.7031C550.945 33.7396 550.836 33.0417 550.617 32.6094C550.273 31.9219 549.805 31.5781 549.211 31.5781C548.617 31.5781 548.148 31.9219 547.805 32.6094C547.591 33.0417 547.484 33.7396 547.484 34.7031V38.6094L546 39.3125H545.922ZM554.625 37.375C554.625 37.375 555.036 37.1823 555.859 36.7969H555.938C556.281 37.4844 556.75 37.8281 557.344 37.8281C557.917 37.8281 558.359 37.6406 558.672 37.2656C558.927 36.9583 559.055 36.6224 559.055 36.2578C559.055 35.8776 558.919 35.5755 558.648 35.3516C558.367 35.1224 557.961 34.9661 557.43 34.8828C556.753 34.7734 556.214 34.5755 555.812 34.2891C555.25 33.888 554.969 33.3099 554.969 32.5547C554.969 31.8307 555.299 31.2318 555.961 30.7578C556.44 30.4193 556.979 30.25 557.578 30.25C558.604 30.25 559.349 30.7448 559.812 31.7344L558.578 32.3125H558.5C558.266 31.8229 557.958 31.5781 557.578 31.5781C557.271 31.5781 557.018 31.6562 556.82 31.8125C556.581 32 556.461 32.2578 556.461 32.5859C556.461 32.9036 556.591 33.1328 556.852 33.2734C557.117 33.4193 557.523 33.5469 558.07 33.6562C558.747 33.7917 559.297 34.0234 559.719 34.3516C560.297 34.7995 560.586 35.4635 560.586 36.3438C560.586 37.026 560.286 37.6719 559.688 38.2812C559.12 38.8646 558.339 39.1562 557.344 39.1562C556.177 39.1562 555.271 38.5625 554.625 37.375ZM563.094 39.3125V27.5938L564.578 26.8906H564.656V31.0625C565.135 30.5208 565.711 30.25 566.383 30.25C567.549 30.25 568.458 30.8516 569.109 32.0547C569.49 32.7474 569.68 33.6302 569.68 34.7031C569.68 35.7031 569.492 36.5859 569.117 37.3516C568.664 38.3047 567.99 38.9583 567.094 39.3125H567.016L566.43 38.1484C567.06 37.9245 567.513 37.474 567.789 36.7969C568.008 36.2552 568.117 35.5573 568.117 34.7031C568.117 33.7396 568.008 33.0417 567.789 32.6094C567.44 31.9219 566.969 31.5781 566.375 31.5781C565.786 31.5781 565.32 31.9219 564.977 32.6094C564.763 33.0417 564.656 33.7396 564.656 34.7031V38.6094L563.172 39.3125H563.094ZM578.617 30.0938V34.7031C578.617 35.7865 578.432 36.6693 578.062 37.3516C577.406 38.5547 576.495 39.1562 575.328 39.1562C574.161 39.1562 573.25 38.5547 572.594 37.3516C572.219 36.6589 572.031 35.776 572.031 34.7031C572.031 33.7031 572.219 32.8203 572.594 32.0547C573.047 31.1016 573.721 30.4479 574.617 30.0938H574.695L575.281 31.2578C574.651 31.4818 574.198 31.9323 573.922 32.6094C573.703 33.151 573.594 33.849 573.594 34.7031C573.594 35.6667 573.703 36.3646 573.922 36.7969C574.266 37.4844 574.734 37.8281 575.328 37.8281C575.922 37.8281 576.391 37.4844 576.734 36.7969C576.948 36.3646 577.055 35.6667 577.055 34.7031V30.7969L578.539 30.0938H578.617ZM583 34.7031C583 35.6823 583.107 36.3802 583.32 36.7969C583.674 37.4844 584.143 37.8281 584.727 37.8281C585.315 37.8281 585.784 37.4844 586.133 36.7969C586.352 36.3646 586.461 35.6667 586.461 34.7031C586.461 33.7396 586.352 33.0417 586.133 32.6094C585.789 31.9271 585.32 31.5859 584.727 31.5859C584.128 31.5859 583.656 31.9323 583.312 32.625C583.104 33.0469 583 33.7396 583 34.7031ZM583 31.0625C583.516 30.5208 584.091 30.25 584.727 30.25C585.893 30.25 586.802 30.8516 587.453 32.0547C587.833 32.7474 588.023 33.6302 588.023 34.7031C588.023 35.7865 587.836 36.6693 587.461 37.3516C586.799 38.5547 585.888 39.1562 584.727 39.1562C583.581 39.1562 582.672 38.5547 582 37.3516C581.625 36.6797 581.438 35.7969 581.438 34.7031V27.5938L582.922 26.8906H583V31.0625ZM590.766 39.3125V27.5938L592.25 26.8906H592.328V31.0625C592.807 30.5208 593.383 30.25 594.055 30.25C595.221 30.25 596.13 30.8516 596.781 32.0547C597.161 32.7474 597.352 33.6302 597.352 34.7031C597.352 35.7031 597.164 36.5859 596.789 37.3516C596.336 38.3047 595.661 38.9583 594.766 39.3125H594.688L594.102 38.1484C594.732 37.9245 595.185 37.474 595.461 36.7969C595.68 36.2552 595.789 35.5573 595.789 34.7031C595.789 33.7396 595.68 33.0417 595.461 32.6094C595.112 31.9219 594.641 31.5781 594.047 31.5781C593.458 31.5781 592.992 31.9219 592.648 32.6094C592.435 33.0417 592.328 33.7396 592.328 34.7031V38.6094L590.844 39.3125H590.766ZM604.078 39.3125V38.2188C603.63 38.8385 603.07 39.151 602.398 39.1562C601.424 39.1562 600.667 38.862 600.125 38.2734C599.583 37.6849 599.312 36.9896 599.312 36.1875C599.312 35.3542 599.607 34.6458 600.195 34.0625C600.763 33.5 601.497 33.2188 602.398 33.2188C603.039 33.2188 603.589 33.5052 604.047 34.0781C603.953 33.2917 603.857 32.8021 603.758 32.6094C603.409 31.9219 602.94 31.5781 602.352 31.5781H600.531V31.5L601.125 30.25H602.352C603.518 30.25 604.427 30.8516 605.078 32.0547C605.453 32.7422 605.641 33.625 605.641 34.7031V38.6094L604.156 39.3125H604.078ZM600.828 36.1719C600.828 36.6406 600.969 37.0339 601.25 37.3516C601.536 37.6693 601.922 37.8281 602.406 37.8281C602.885 37.8281 603.286 37.6641 603.609 37.3359C603.911 37.0286 604.062 36.651 604.062 36.2031C604.062 35.7344 603.901 35.3411 603.578 35.0234C603.255 34.7057 602.867 34.5469 602.414 34.5469C601.93 34.5469 601.542 34.7083 601.25 35.0312C600.969 35.349 600.828 35.7292 600.828 36.1719ZM607.984 39.3125V34.7031C607.984 33.6198 608.172 32.737 608.547 32.0547C609.198 30.8516 610.107 30.25 611.273 30.25H612.328V30.3281L611.734 31.5781H611.273C610.68 31.5781 610.211 31.9219 609.867 32.6094C609.654 33.0417 609.547 33.7396 609.547 34.7031V38.6094L608.062 39.3125H607.984ZM613.031 34.7031C613.031 33.6198 613.219 32.737 613.594 32.0547C614.245 30.8516 615.154 30.25 616.32 30.25C616.997 30.25 617.576 30.5234 618.055 31.0703V27.5938L619.539 26.8906H619.617V34.7031C619.617 35.7865 619.43 36.6693 619.055 37.3516C618.393 38.5547 617.482 39.1562 616.32 39.1562C615.174 39.1562 614.266 38.5547 613.594 37.3516C613.219 36.6797 613.031 35.7969 613.031 34.7031ZM614.594 34.7031C614.594 35.6823 614.701 36.3802 614.914 36.7969C615.268 37.4844 615.737 37.8281 616.32 37.8281C616.909 37.8281 617.378 37.4844 617.727 36.7969C617.945 36.3646 618.055 35.6667 618.055 34.7031C618.055 33.7396 617.945 33.0417 617.727 32.6094C617.383 31.9271 616.914 31.5859 616.32 31.5859C615.727 31.5859 615.258 31.9323 614.914 32.625C614.701 33.0573 614.594 33.75 614.594 34.7031ZM628.789 30.0938V34.7031C628.789 35.6562 628.896 36.3542 629.109 36.7969C629.443 37.4844 629.911 37.8281 630.516 37.8281C631.109 37.8281 631.578 37.4844 631.922 36.7969C632.141 36.3542 632.25 35.6562 632.25 34.7031C632.25 33.849 632.141 33.151 631.922 32.6094C631.646 31.9323 631.193 31.4818 630.562 31.2578L631.148 30.0938H631.227C632.122 30.4479 632.797 31.1016 633.25 32.0547C633.625 32.8411 633.812 33.724 633.812 34.7031C633.812 35.776 633.625 36.6589 633.25 37.3516C632.594 38.5547 631.682 39.1562 630.516 39.1562C629.479 39.1562 628.643 38.6771 628.008 37.7188C627.372 38.6771 626.536 39.1562 625.5 39.1562C624.328 39.1562 623.417 38.5547 622.766 37.3516C622.391 36.6589 622.203 35.776 622.203 34.7031C622.203 33.724 622.391 32.8411 622.766 32.0547C623.219 31.1016 623.893 30.4479 624.789 30.0938H624.867L625.453 31.2578C624.823 31.4818 624.37 31.9323 624.094 32.6094C623.875 33.151 623.766 33.849 623.766 34.7031C623.766 35.6562 623.875 36.3542 624.094 36.7969C624.438 37.4844 624.906 37.8281 625.5 37.8281C626.094 37.8281 626.562 37.4844 626.906 36.7969C627.12 36.3646 627.227 35.6667 627.227 34.7031V30.7969L628.711 30.0938H628.789ZM640.531 39.3125V38.2188C640.083 38.8385 639.523 39.151 638.852 39.1562C637.878 39.1562 637.12 38.862 636.578 38.2734C636.036 37.6849 635.766 36.9896 635.766 36.1875C635.766 35.3542 636.06 34.6458 636.648 34.0625C637.216 33.5 637.951 33.2188 638.852 33.2188C639.492 33.2188 640.042 33.5052 640.5 34.0781C640.406 33.2917 640.31 32.8021 640.211 32.6094C639.862 31.9219 639.393 31.5781 638.805 31.5781H636.984V31.5L637.578 30.25H638.805C639.971 30.25 640.88 30.8516 641.531 32.0547C641.906 32.7422 642.094 33.625 642.094 34.7031V38.6094L640.609 39.3125H640.531ZM637.281 36.1719C637.281 36.6406 637.422 37.0339 637.703 37.3516C637.99 37.6693 638.375 37.8281 638.859 37.8281C639.339 37.8281 639.74 37.6641 640.062 37.3359C640.365 37.0286 640.516 36.651 640.516 36.2031C640.516 35.7344 640.354 35.3411 640.031 35.0234C639.708 34.7057 639.32 34.5469 638.867 34.5469C638.383 34.5469 637.995 34.7083 637.703 35.0312C637.422 35.349 637.281 35.7292 637.281 36.1719ZM643.102 42.3594L643.742 40.9531C644.044 40.7812 644.299 40.4896 644.508 40.0781C644.721 39.6458 644.828 38.9479 644.828 37.9844V30.7969L646.312 30.0938H646.391V37.9844C646.391 39.0677 646.203 39.9505 645.828 40.6328C645.177 41.8359 644.268 42.4375 643.102 42.4375V42.3594ZM644.945 28.6797C644.763 28.4922 644.672 28.2682 644.672 28.0078C644.672 27.7422 644.763 27.5156 644.945 27.3281C645.128 27.1406 645.349 27.0469 645.609 27.0469C645.87 27.0469 646.091 27.1406 646.273 27.3281C646.456 27.5156 646.547 27.7422 646.547 28.0078C646.547 28.2682 646.456 28.4922 646.273 28.6797C646.091 28.8672 645.87 28.9609 645.609 28.9609C645.349 28.9609 645.128 28.8672 644.945 28.6797ZM650.688 33.1016C650.688 34.4401 650.865 35.4531 651.219 36.1406C651.797 37.2656 652.562 37.8281 653.516 37.8281C654.479 37.8281 655.245 37.2656 655.812 36.1406C656.167 35.4375 656.344 34.4245 656.344 33.1016C656.344 31.7786 656.167 30.7656 655.812 30.0625C655.25 28.9375 654.484 28.375 653.516 28.375C652.552 28.375 651.786 28.9375 651.219 30.0625C650.865 30.7656 650.688 31.7786 650.688 33.1016ZM649.875 36.75C649.375 35.8333 649.125 34.6172 649.125 33.1016C649.125 31.5859 649.375 30.3698 649.875 29.4531C650.75 27.849 651.964 27.0469 653.516 27.0469C655.073 27.0469 656.286 27.849 657.156 29.4531C657.656 30.375 657.906 31.5911 657.906 33.1016C657.906 34.6172 657.656 35.8333 657.156 36.75C656.286 38.3542 655.073 39.1562 653.516 39.1562C651.964 39.1562 650.75 38.3542 649.875 36.75ZM662.148 39C660.883 39 660.25 38.4844 660.25 37.4531C660.25 35.7812 661.487 34.3906 663.961 33.2812C665.471 32.6042 666.227 31.7526 666.227 30.7266C666.227 30.0339 666.065 29.5 665.742 29.125C665.31 28.625 664.719 28.375 663.969 28.375C663.016 28.375 662.25 28.9375 661.672 30.0625H661.594L660.328 29.4531C661.203 27.849 662.417 27.0469 663.969 27.0469C665.229 27.0469 666.193 27.4245 666.859 28.1797C667.495 28.8984 667.812 29.776 667.812 30.8125C667.812 32.2708 666.815 33.474 664.82 34.4219C662.706 35.4271 661.648 36.3438 661.648 37.1719C661.648 37.5052 661.815 37.6719 662.148 37.6719H665.742C666.357 37.6719 666.742 37.3672 666.898 36.7578H666.977L668.148 37.3125C667.836 38.4375 667.034 39 665.742 39H662.148ZM671.391 39.3125V28.4219L669.484 30.1094V28.5078L671.391 26.8906C672.432 26.8906 672.953 27.401 672.953 28.4219V38.6094L671.469 39.3125H671.391ZM676.969 39.3125V28.4219L675.062 30.1094V28.5078L676.969 26.8906C678.01 26.8906 678.531 27.401 678.531 28.4219V38.6094L677.047 39.3125H676.969ZM688.508 39.3125H687.758C686.732 39.2448 685.969 39.0104 685.469 38.6094C684.833 38.099 684.516 37.4479 684.516 36.6562C684.516 35.7448 684.839 35.0339 685.484 34.5234C686.031 34.0911 686.789 33.8411 687.758 33.7734H688.406C688.365 33.3516 688.182 32.9297 687.859 32.5078C687.391 31.888 686.786 31.5781 686.047 31.5781C685.089 31.5781 684.323 32.1406 683.75 33.2656C683.396 33.9688 683.219 34.9818 683.219 36.3047C683.219 37.6432 683.396 38.6562 683.75 39.3438C684.328 40.4688 685.094 41.0312 686.047 41.0312V42.3594C684.495 42.3594 683.281 41.5573 682.406 39.9531C681.906 39.0365 681.656 37.8203 681.656 36.3047C681.656 34.7891 681.906 33.5729 682.406 32.6562C683.286 31.0521 684.5 30.25 686.047 30.25C687.177 30.25 688.135 30.6849 688.922 31.5547C689.635 32.3516 689.992 33.2578 689.992 34.2734V38.6094L688.508 39.3125ZM688.43 34.9844C687.482 34.9896 686.831 35.1354 686.477 35.4219C686.128 35.7031 685.953 36.0729 685.953 36.5312C685.953 36.9479 686.141 37.3203 686.516 37.6484C686.839 37.9349 687.477 38.0781 688.43 38.0781V34.9844ZM694.453 32.6172C694.245 33.0391 694.141 33.7344 694.141 34.7031C694.141 35.6719 694.247 36.3698 694.461 36.7969C694.805 37.4844 695.273 37.8281 695.867 37.8281C696.461 37.8281 696.93 37.4844 697.273 36.7969C697.492 36.3646 697.602 35.6667 697.602 34.7031C697.602 33.7396 697.492 33.0417 697.273 32.6094C696.935 31.9219 696.466 31.5781 695.867 31.5781C695.268 31.5781 694.797 31.9245 694.453 32.6172ZM692.578 34.7031C692.578 33.6198 692.766 32.737 693.141 32.0547C693.792 30.8516 694.701 30.25 695.867 30.25C697.034 30.25 697.943 30.8516 698.594 32.0547C698.974 32.7474 699.164 33.6302 699.164 34.7031V37.9062C699.164 38.974 698.979 39.8568 698.609 40.5547C697.964 41.7578 697.052 42.3594 695.875 42.3594H693.992V42.2812L694.586 41.0312H695.875C696.531 41.0312 697 40.6875 697.281 40C697.474 39.526 697.57 38.9844 697.57 38.375C697.06 38.8958 696.492 39.1562 695.867 39.1562C694.721 39.1562 693.812 38.5547 693.141 37.3516C692.766 36.6797 692.578 35.7969 692.578 34.7031ZM706.695 39.3125V34.7031C706.695 33.75 706.589 33.0521 706.375 32.6094C706.042 31.9219 705.573 31.5781 704.969 31.5781C704.38 31.5781 703.911 31.9219 703.562 32.6094C703.344 33.0521 703.234 33.75 703.234 34.7031C703.234 35.5573 703.344 36.2552 703.562 36.7969C703.839 37.474 704.292 37.9245 704.922 38.1484L704.336 39.3125H704.258C703.362 38.9583 702.688 38.3047 702.234 37.3516C701.859 36.5651 701.672 35.6823 701.672 34.7031C701.672 33.6302 701.859 32.7474 702.234 32.0547C702.891 30.8516 703.802 30.25 704.969 30.25C706.005 30.25 706.841 30.7292 707.477 31.6875C708.112 30.7292 708.948 30.25 709.984 30.25C711.151 30.25 712.062 30.8516 712.719 32.0547C713.094 32.7474 713.281 33.6302 713.281 34.7031C713.281 35.7031 713.094 36.5859 712.719 37.3516C712.266 38.3047 711.591 38.9583 710.695 39.3125H710.617L710.031 38.1484C710.661 37.9245 711.115 37.474 711.391 36.7969C711.609 36.2552 711.719 35.5573 711.719 34.7031C711.719 33.75 711.609 33.0521 711.391 32.6094C711.047 31.9219 710.578 31.5781 709.984 31.5781C709.391 31.5781 708.922 31.9219 708.578 32.6094C708.365 33.0417 708.258 33.7396 708.258 34.7031V38.6094L706.773 39.3125H706.695ZM720 39.3125V38.2188C719.552 38.8385 718.992 39.151 718.32 39.1562C717.346 39.1562 716.589 38.862 716.047 38.2734C715.505 37.6849 715.234 36.9896 715.234 36.1875C715.234 35.3542 715.529 34.6458 716.117 34.0625C716.685 33.5 717.419 33.2188 718.32 33.2188C718.961 33.2188 719.51 33.5052 719.969 34.0781C719.875 33.2917 719.779 32.8021 719.68 32.6094C719.331 31.9219 718.862 31.5781 718.273 31.5781H716.453V31.5L717.047 30.25H718.273C719.44 30.25 720.349 30.8516 721 32.0547C721.375 32.7422 721.562 33.625 721.562 34.7031V38.6094L720.078 39.3125H720ZM716.75 36.1719C716.75 36.6406 716.891 37.0339 717.172 37.3516C717.458 37.6693 717.844 37.8281 718.328 37.8281C718.807 37.8281 719.208 37.6641 719.531 37.3359C719.833 37.0286 719.984 36.651 719.984 36.2031C719.984 35.7344 719.823 35.3411 719.5 35.0234C719.177 34.7057 718.789 34.5469 718.336 34.5469C717.852 34.5469 717.464 34.7083 717.172 35.0312C716.891 35.349 716.75 35.7292 716.75 36.1719ZM724.414 28.6797C724.232 28.4922 724.141 28.2682 724.141 28.0078C724.141 27.7422 724.232 27.5156 724.414 27.3281C724.596 27.1406 724.818 27.0469 725.078 27.0469C725.339 27.0469 725.56 27.1406 725.742 27.3281C725.924 27.5156 726.016 27.7422 726.016 28.0078C726.016 28.2682 725.924 28.4922 725.742 28.6797C725.56 28.8672 725.339 28.9609 725.078 28.9609C724.818 28.9609 724.596 28.8672 724.414 28.6797ZM724.297 39.3125V30.7969L725.781 30.0938H725.859V38.6094L724.375 39.3125H724.297ZM728.984 39.3125V27.5938L730.469 26.8906H730.547V38.6094L729.062 39.3125H728.984ZM733.789 38.875C733.607 38.6875 733.516 38.4635 733.516 38.2031C733.516 37.9375 733.607 37.7109 733.789 37.5234C733.971 37.3359 734.193 37.2422 734.453 37.2422C734.714 37.2422 734.935 37.3359 735.117 37.5234C735.299 37.7109 735.391 37.9375 735.391 38.2031C735.391 38.4635 735.299 38.6875 735.117 38.875C734.935 39.0625 734.714 39.1562 734.453 39.1562C734.193 39.1562 733.971 39.0625 733.789 38.875ZM744.438 36.0547C744.344 36.5495 744.195 36.9818 743.992 37.3516C743.331 38.5547 742.419 39.1562 741.258 39.1562C740.112 39.1562 739.203 38.5547 738.531 37.3516C738.156 36.6797 737.969 35.7969 737.969 34.7031C737.969 33.6302 738.156 32.7474 738.531 32.0547C739.182 30.8516 740.091 30.25 741.258 30.25C742.424 30.25 743.331 30.8438 743.977 32.0312L742.742 32.6094H742.664C742.32 31.9219 741.852 31.5781 741.258 31.5781C740.664 31.5781 740.195 31.9219 739.852 32.6094C739.638 33.0417 739.531 33.7396 739.531 34.7031C739.531 35.6719 739.638 36.3698 739.852 36.7969C740.206 37.4844 740.674 37.8281 741.258 37.8281C741.852 37.8281 742.32 37.4844 742.664 36.7969L744.359 36.0547H744.438ZM748.422 32.6172C748.214 33.0391 748.109 33.7344 748.109 34.7031C748.109 35.6719 748.216 36.3698 748.43 36.7969C748.773 37.4844 749.242 37.8281 749.836 37.8281C750.43 37.8281 750.898 37.4844 751.242 36.7969C751.461 36.3646 751.57 35.6667 751.57 34.7031C751.57 33.7396 751.461 33.0417 751.242 32.6094C750.904 31.9219 750.435 31.5781 749.836 31.5781C749.237 31.5781 748.766 31.9245 748.422 32.6172ZM746.547 34.7031C746.547 33.6198 746.734 32.737 747.109 32.0547C747.76 30.8516 748.669 30.25 749.836 30.25C751.003 30.25 751.911 30.8516 752.562 32.0547C752.943 32.7474 753.133 33.6302 753.133 34.7031C753.133 35.7917 752.945 36.6745 752.57 37.3516C751.909 38.5547 750.997 39.1562 749.836 39.1562C748.69 39.1562 747.781 38.5547 747.109 37.3516C746.734 36.6797 746.547 35.7969 746.547 34.7031ZM760.508 39.3125V34.7031C760.508 33.75 760.401 33.0521 760.188 32.6094C759.854 31.9219 759.385 31.5781 758.781 31.5781C758.193 31.5781 757.724 31.9219 757.375 32.6094C757.156 33.0521 757.047 33.75 757.047 34.7031C757.047 35.5573 757.156 36.2552 757.375 36.7969C757.651 37.474 758.104 37.9245 758.734 38.1484L758.148 39.3125H758.07C757.174 38.9583 756.5 38.3047 756.047 37.3516C755.672 36.5651 755.484 35.6823 755.484 34.7031C755.484 33.6302 755.672 32.7474 756.047 32.0547C756.703 30.8516 757.615 30.25 758.781 30.25C759.818 30.25 760.654 30.7292 761.289 31.6875C761.924 30.7292 762.76 30.25 763.797 30.25C764.964 30.25 765.875 30.8516 766.531 32.0547C766.906 32.7474 767.094 33.6302 767.094 34.7031C767.094 35.7031 766.906 36.5859 766.531 37.3516C766.078 38.3047 765.404 38.9583 764.508 39.3125H764.43L763.844 38.1484C764.474 37.9245 764.927 37.474 765.203 36.7969C765.422 36.2552 765.531 35.5573 765.531 34.7031C765.531 33.75 765.422 33.0521 765.203 32.6094C764.859 31.9219 764.391 31.5781 763.797 31.5781C763.203 31.5781 762.734 31.9219 762.391 32.6094C762.177 33.0417 762.07 33.7396 762.07 34.7031V38.6094L760.586 39.3125H760.508Z" fill="white"/>
<g id="main">
<g id="Mobile">
<path id="Mobile No: 8586880505" d="M93.3906 39.3125V33.1016C93.3906 31.7786 93.2135 30.7656 92.8594 30.0625C92.2865 28.9375 91.5208 28.375 90.5625 28.375C89.5938 28.375 88.8281 28.9375 88.2656 30.0625C87.9115 30.7656 87.7344 31.7786 87.7344 33.1016C87.7344 34.4349 87.9115 35.4479 88.2656 36.1406C88.7292 37.0469 89.4193 37.7161 90.3359 38.1484L89.75 39.3125H89.6719C88.5417 38.9271 87.625 38.0729 86.9219 36.75C86.4219 35.8073 86.1719 34.5911 86.1719 33.1016C86.1719 31.5911 86.4219 30.375 86.9219 29.4531C87.7917 27.849 89.0052 27.0469 90.5625 27.0469C92.0938 27.0469 93.2969 27.8307 94.1719 29.3984C95.0469 27.8307 96.25 27.0469 97.7812 27.0469C99.3385 27.0469 100.552 27.849 101.422 29.4531C101.922 30.375 102.172 31.5911 102.172 33.1016C102.172 34.5911 101.922 35.8073 101.422 36.75C100.719 38.0729 99.8021 38.9271 98.6719 39.3125H98.5938L98.0078 38.1484C98.9297 37.7109 99.6198 37.0417 100.078 36.1406C100.432 35.4427 100.609 34.4297 100.609 33.1016C100.609 31.7786 100.432 30.7656 100.078 30.0625C99.5104 28.9375 98.7448 28.375 97.7812 28.375C96.8177 28.375 96.0521 28.9375 95.4844 30.0625C95.1302 30.7656 94.9531 31.7786 94.9531 33.1016V38.6094L93.4688 39.3125H93.3906ZM106 32.6172C105.792 33.0391 105.688 33.7344 105.688 34.7031C105.688 35.6719 105.794 36.3698 106.008 36.7969C106.352 37.4844 106.82 37.8281 107.414 37.8281C108.008 37.8281 108.477 37.4844 108.82 36.7969C109.039 36.3646 109.148 35.6667 109.148 34.7031C109.148 33.7396 109.039 33.0417 108.82 32.6094C108.482 31.9219 108.013 31.5781 107.414 31.5781C106.815 31.5781 106.344 31.9245 106 32.6172ZM104.125 34.7031C104.125 33.6198 104.312 32.737 104.688 32.0547C105.339 30.8516 106.247 30.25 107.414 30.25C108.581 30.25 109.49 30.8516 110.141 32.0547C110.521 32.7474 110.711 33.6302 110.711 34.7031C110.711 35.7917 110.523 36.6745 110.148 37.3516C109.487 38.5547 108.576 39.1562 107.414 39.1562C106.268 39.1562 105.359 38.5547 104.688 37.3516C104.312 36.6797 104.125 35.7969 104.125 34.7031ZM114.859 34.7031C114.859 35.6823 114.966 36.3802 115.18 36.7969C115.534 37.4844 116.003 37.8281 116.586 37.8281C117.174 37.8281 117.643 37.4844 117.992 36.7969C118.211 36.3646 118.32 35.6667 118.32 34.7031C118.32 33.7396 118.211 33.0417 117.992 32.6094C117.648 31.9271 117.18 31.5859 116.586 31.5859C115.987 31.5859 115.516 31.9323 115.172 32.625C114.964 33.0469 114.859 33.7396 114.859 34.7031ZM114.859 31.0625C115.375 30.5208 115.951 30.25 116.586 30.25C117.753 30.25 118.661 30.8516 119.312 32.0547C119.693 32.7474 119.883 33.6302 119.883 34.7031C119.883 35.7865 119.695 36.6693 119.32 37.3516C118.659 38.5547 117.747 39.1562 116.586 39.1562C115.44 39.1562 114.531 38.5547 113.859 37.3516C113.484 36.6797 113.297 35.7969 113.297 34.7031V27.5938L114.781 26.8906H114.859V31.0625ZM122.742 28.6797C122.56 28.4922 122.469 28.2682 122.469 28.0078C122.469 27.7422 122.56 27.5156 122.742 27.3281C122.924 27.1406 123.146 27.0469 123.406 27.0469C123.667 27.0469 123.888 27.1406 124.07 27.3281C124.253 27.5156 124.344 27.7422 124.344 28.0078C124.344 28.2682 124.253 28.4922 124.07 28.6797C123.888 28.8672 123.667 28.9609 123.406 28.9609C123.146 28.9609 122.924 28.8672 122.742 28.6797ZM122.625 39.3125V30.7969L124.109 30.0938H124.188V38.6094L122.703 39.3125H122.625ZM127.312 39.3125V27.5938L128.797 26.8906H128.875V38.6094L127.391 39.3125H127.312ZM138.078 36.0547C137.984 36.5495 137.836 36.9818 137.633 37.3516C136.971 38.5547 136.06 39.1562 134.898 39.1562C133.753 39.1562 132.844 38.5547 132.172 37.3516C131.797 36.6797 131.609 35.7969 131.609 34.7031C131.609 33.625 131.797 32.7422 132.172 32.0547C132.823 30.8516 133.732 30.25 134.898 30.25C136.06 30.25 136.969 30.849 137.625 32.0469C137.786 32.3438 137.917 32.6901 138.016 33.0859L133.484 36.7734C133.833 37.4766 134.31 37.8281 134.914 37.8281C135.503 37.8281 135.966 37.4844 136.305 36.7969L138 36.0547H138.078ZM133.188 35.3047L136.305 32.6094C135.966 31.9219 135.497 31.5781 134.898 31.5781C134.31 31.5781 133.841 31.9219 133.492 32.6094C133.279 33.0365 133.172 33.7344 133.172 34.7031C133.172 34.9167 133.177 35.1172 133.188 35.3047ZM146.906 39.3125V33.1016C146.906 31.5859 147.156 30.3698 147.656 29.4531C148.531 27.849 149.745 27.0469 151.297 27.0469C152.854 27.0469 154.068 27.849 154.938 29.4531C155.438 30.3698 155.688 31.5859 155.688 33.1016C155.688 34.5911 155.438 35.8073 154.938 36.75C154.234 38.0729 153.318 38.9271 152.188 39.3125H152.109L151.523 38.1484C152.451 37.7109 153.141 37.0417 153.594 36.1406C153.948 35.4479 154.125 34.4349 154.125 33.1016C154.125 31.7786 153.948 30.7656 153.594 30.0625C153.031 28.9375 152.266 28.375 151.297 28.375C150.328 28.375 149.562 28.9375 149 30.0625C148.646 30.7656 148.469 31.7786 148.469 33.1016V38.6094L146.984 39.3125H146.906ZM159.516 32.6172C159.307 33.0391 159.203 33.7344 159.203 34.7031C159.203 35.6719 159.31 36.3698 159.523 36.7969C159.867 37.4844 160.336 37.8281 160.93 37.8281C161.523 37.8281 161.992 37.4844 162.336 36.7969C162.555 36.3646 162.664 35.6667 162.664 34.7031C162.664 33.7396 162.555 33.0417 162.336 32.6094C161.997 31.9219 161.529 31.5781 160.93 31.5781C160.331 31.5781 159.859 31.9245 159.516 32.6172ZM157.641 34.7031C157.641 33.6198 157.828 32.737 158.203 32.0547C158.854 30.8516 159.763 30.25 160.93 30.25C162.096 30.25 163.005 30.8516 163.656 32.0547C164.036 32.7474 164.227 33.6302 164.227 34.7031C164.227 35.7917 164.039 36.6745 163.664 37.3516C163.003 38.5547 162.091 39.1562 160.93 39.1562C159.784 39.1562 158.875 38.5547 158.203 37.3516C157.828 36.6797 157.641 35.7969 157.641 34.7031ZM167.086 33.7891C166.904 33.6016 166.812 33.3776 166.812 33.1172C166.812 32.8516 166.904 32.625 167.086 32.4375C167.268 32.25 167.49 32.1562 167.75 32.1562C168.01 32.1562 168.232 32.25 168.414 32.4375C168.596 32.625 168.688 32.8516 168.688 33.1172C168.688 33.3776 168.596 33.6016 168.414 33.7891C168.232 33.9766 168.01 34.0703 167.75 34.0703C167.49 34.0703 167.268 33.9766 167.086 33.7891ZM167.086 38.875C166.904 38.6875 166.812 38.4635 166.812 38.2031C166.812 37.9375 166.904 37.7109 167.086 37.5234C167.268 37.3359 167.49 37.2422 167.75 37.2422C168.01 37.2422 168.232 37.3359 168.414 37.5234C168.596 37.7109 168.688 37.9375 168.688 38.2031C168.688 38.4635 168.596 38.6875 168.414 38.875C168.232 39.0625 168.01 39.1562 167.75 39.1562C167.49 39.1562 167.268 39.0625 167.086 38.875ZM177.516 35.3125C177.516 34.2917 177.911 33.4115 178.703 32.6719C178.87 32.5156 179.068 32.3776 179.297 32.2578C178.573 31.6745 178.211 30.974 178.211 30.1562C178.211 29.1146 178.534 28.3281 179.18 27.7969C179.794 27.2969 180.552 27.0469 181.453 27.0469C182.354 27.0469 183.112 27.2969 183.727 27.7969C184.372 28.3229 184.695 29.1094 184.695 30.1562C184.695 30.974 184.333 31.6745 183.609 32.2578C183.839 32.3776 184.036 32.5156 184.203 32.6719C184.995 33.4115 185.391 34.2917 185.391 35.3125C185.391 36.375 185.042 37.2786 184.344 38.0234C183.63 38.7786 182.667 39.1562 181.453 39.1562C180.234 39.1562 179.271 38.7786 178.562 38.0234C177.865 37.2786 177.516 36.375 177.516 35.3125ZM181.453 37.8281C182.214 37.8281 182.833 37.5495 183.312 36.9922C183.656 36.5911 183.828 36.0365 183.828 35.3281C183.828 34.7031 183.643 34.1849 183.273 33.7734C182.82 33.2682 182.214 33.0156 181.453 33.0156C180.714 33.0156 180.109 33.2656 179.641 33.7656C179.266 34.1667 179.078 34.6875 179.078 35.3281C179.083 36.0208 179.268 36.5755 179.633 36.9922C180.122 37.5495 180.729 37.8281 181.453 37.8281ZM182.672 28.7578C182.365 28.4401 181.958 28.2812 181.453 28.2812C180.948 28.2812 180.542 28.4401 180.234 28.7578C179.927 29.0755 179.773 29.5026 179.773 30.0391C179.773 30.5807 179.891 30.9688 180.125 31.2031C180.531 31.599 180.974 31.7969 181.453 31.7969C181.979 31.7969 182.422 31.599 182.781 31.2031C183.016 30.9427 183.133 30.5547 183.133 30.0391C183.133 29.5026 182.979 29.0755 182.672 28.7578ZM187.734 36.75L189 36.1406H189.078C189.651 37.2656 190.417 37.8281 191.375 37.8281C192.109 37.8281 192.706 37.5651 193.164 37.0391C193.555 36.5911 193.75 36.0208 193.75 35.3281C193.75 34.5521 193.521 33.9688 193.062 33.5781C192.609 33.1823 192.044 32.9844 191.367 32.9844C190.831 32.9844 190.339 33.1484 189.891 33.4766L188.258 32.6875L189.156 28.8906C189.427 27.7656 190.229 27.2031 191.562 27.2031H194.656V27.2812L194.07 28.5312H191.68C191.076 28.5312 190.69 28.8359 190.523 29.4453L189.797 32.1094C190.271 31.776 190.799 31.6094 191.383 31.6094C192.477 31.6094 193.388 31.9219 194.117 32.5469C194.914 33.2344 195.312 34.1562 195.312 35.3125C195.312 36.375 194.964 37.2786 194.266 38.0234C193.552 38.7786 192.589 39.1562 191.375 39.1562C189.823 39.1562 188.609 38.3542 187.734 36.75ZM197.656 35.3125C197.656 34.2917 198.052 33.4115 198.844 32.6719C199.01 32.5156 199.208 32.3776 199.438 32.2578C198.714 31.6745 198.352 30.974 198.352 30.1562C198.352 29.1146 198.674 28.3281 199.32 27.7969C199.935 27.2969 200.693 27.0469 201.594 27.0469C202.495 27.0469 203.253 27.2969 203.867 27.7969C204.513 28.3229 204.836 29.1094 204.836 30.1562C204.836 30.974 204.474 31.6745 203.75 32.2578C203.979 32.3776 204.177 32.5156 204.344 32.6719C205.135 33.4115 205.531 34.2917 205.531 35.3125C205.531 36.375 205.182 37.2786 204.484 38.0234C203.771 38.7786 202.807 39.1562 201.594 39.1562C200.375 39.1562 199.411 38.7786 198.703 38.0234C198.005 37.2786 197.656 36.375 197.656 35.3125ZM201.594 37.8281C202.354 37.8281 202.974 37.5495 203.453 36.9922C203.797 36.5911 203.969 36.0365 203.969 35.3281C203.969 34.7031 203.784 34.1849 203.414 33.7734C202.961 33.2682 202.354 33.0156 201.594 33.0156C200.854 33.0156 200.25 33.2656 199.781 33.7656C199.406 34.1667 199.219 34.6875 199.219 35.3281C199.224 36.0208 199.409 36.5755 199.773 36.9922C200.263 37.5495 200.87 37.8281 201.594 37.8281ZM202.812 28.7578C202.505 28.4401 202.099 28.2812 201.594 28.2812C201.089 28.2812 200.682 28.4401 200.375 28.7578C200.068 29.0755 199.914 29.5026 199.914 30.0391C199.914 30.5807 200.031 30.9688 200.266 31.2031C200.672 31.599 201.115 31.7969 201.594 31.7969C202.12 31.7969 202.562 31.599 202.922 31.2031C203.156 30.9427 203.273 30.5547 203.273 30.0391C203.273 29.5026 203.12 29.0755 202.812 28.7578ZM215.906 29.4531L214.641 30.0625H214.562C213.984 28.9375 213.219 28.375 212.266 28.375C211.302 28.375 210.536 28.9375 209.969 30.0625C209.615 30.7656 209.438 31.7786 209.438 33.1016C210.109 32.0182 211.049 31.474 212.258 31.4688C213.466 31.4688 214.432 31.8516 215.156 32.6172C215.859 33.362 216.211 34.2604 216.211 35.3125C216.211 36.375 215.859 37.2786 215.156 38.0234C214.443 38.7786 213.479 39.1562 212.266 39.1562C210.708 39.1562 209.495 38.3542 208.625 36.75C208.125 35.8281 207.875 34.612 207.875 33.1016C207.875 31.5859 208.125 30.3698 208.625 29.4531C209.495 27.849 210.708 27.0469 212.266 27.0469C213.818 27.0469 215.031 27.849 215.906 29.4531ZM212.266 32.8125C211.609 32.8125 211.029 33.0677 210.523 33.5781C210.096 34.0104 209.883 34.5938 209.883 35.3281C209.883 35.9792 210.089 36.5312 210.5 36.9844C211.01 37.5469 211.599 37.8281 212.266 37.8281C213.036 37.8281 213.654 37.5521 214.117 37C214.471 36.5781 214.648 36.0208 214.648 35.3281C214.648 34.599 214.474 34.0391 214.125 33.6484C213.625 33.0911 213.005 32.8125 212.266 32.8125ZM218.562 35.3125C218.562 34.2917 218.958 33.4115 219.75 32.6719C219.917 32.5156 220.115 32.3776 220.344 32.2578C219.62 31.6745 219.258 30.974 219.258 30.1562C219.258 29.1146 219.581 28.3281 220.227 27.7969C220.841 27.2969 221.599 27.0469 222.5 27.0469C223.401 27.0469 224.159 27.2969 224.773 27.7969C225.419 28.3229 225.742 29.1094 225.742 30.1562C225.742 30.974 225.38 31.6745 224.656 32.2578C224.885 32.3776 225.083 32.5156 225.25 32.6719C226.042 33.4115 226.438 34.2917 226.438 35.3125C226.438 36.375 226.089 37.2786 225.391 38.0234C224.677 38.7786 223.714 39.1562 222.5 39.1562C221.281 39.1562 220.318 38.7786 219.609 38.0234C218.911 37.2786 218.562 36.375 218.562 35.3125ZM222.5 37.8281C223.26 37.8281 223.88 37.5495 224.359 36.9922C224.703 36.5911 224.875 36.0365 224.875 35.3281C224.875 34.7031 224.69 34.1849 224.32 33.7734C223.867 33.2682 223.26 33.0156 222.5 33.0156C221.76 33.0156 221.156 33.2656 220.688 33.7656C220.312 34.1667 220.125 34.6875 220.125 35.3281C220.13 36.0208 220.315 36.5755 220.68 36.9922C221.169 37.5495 221.776 37.8281 222.5 37.8281ZM223.719 28.7578C223.411 28.4401 223.005 28.2812 222.5 28.2812C221.995 28.2812 221.589 28.4401 221.281 28.7578C220.974 29.0755 220.82 29.5026 220.82 30.0391C220.82 30.5807 220.938 30.9688 221.172 31.2031C221.578 31.599 222.021 31.7969 222.5 31.7969C223.026 31.7969 223.469 31.599 223.828 31.2031C224.062 30.9427 224.18 30.5547 224.18 30.0391C224.18 29.5026 224.026 29.0755 223.719 28.7578ZM228.781 35.3125C228.781 34.2917 229.177 33.4115 229.969 32.6719C230.135 32.5156 230.333 32.3776 230.562 32.2578C229.839 31.6745 229.477 30.974 229.477 30.1562C229.477 29.1146 229.799 28.3281 230.445 27.7969C231.06 27.2969 231.818 27.0469 232.719 27.0469C233.62 27.0469 234.378 27.2969 234.992 27.7969C235.638 28.3229 235.961 29.1094 235.961 30.1562C235.961 30.974 235.599 31.6745 234.875 32.2578C235.104 32.3776 235.302 32.5156 235.469 32.6719C236.26 33.4115 236.656 34.2917 236.656 35.3125C236.656 36.375 236.307 37.2786 235.609 38.0234C234.896 38.7786 233.932 39.1562 232.719 39.1562C231.5 39.1562 230.536 38.7786 229.828 38.0234C229.13 37.2786 228.781 36.375 228.781 35.3125ZM232.719 37.8281C233.479 37.8281 234.099 37.5495 234.578 36.9922C234.922 36.5911 235.094 36.0365 235.094 35.3281C235.094 34.7031 234.909 34.1849 234.539 33.7734C234.086 33.2682 233.479 33.0156 232.719 33.0156C231.979 33.0156 231.375 33.2656 230.906 33.7656C230.531 34.1667 230.344 34.6875 230.344 35.3281C230.349 36.0208 230.534 36.5755 230.898 36.9922C231.388 37.5495 231.995 37.8281 232.719 37.8281ZM233.938 28.7578C233.63 28.4401 233.224 28.2812 232.719 28.2812C232.214 28.2812 231.807 28.4401 231.5 28.7578C231.193 29.0755 231.039 29.5026 231.039 30.0391C231.039 30.5807 231.156 30.9688 231.391 31.2031C231.797 31.599 232.24 31.7969 232.719 31.7969C233.245 31.7969 233.688 31.599 234.047 31.2031C234.281 30.9427 234.398 30.5547 234.398 30.0391C234.398 29.5026 234.245 29.0755 233.938 28.7578ZM240.562 33.1016C240.562 34.4401 240.74 35.4531 241.094 36.1406C241.672 37.2656 242.438 37.8281 243.391 37.8281C244.354 37.8281 245.12 37.2656 245.688 36.1406C246.042 35.4375 246.219 34.4245 246.219 33.1016C246.219 31.7786 246.042 30.7656 245.688 30.0625C245.125 28.9375 244.359 28.375 243.391 28.375C242.427 28.375 241.661 28.9375 241.094 30.0625C240.74 30.7656 240.562 31.7786 240.562 33.1016ZM239.75 36.75C239.25 35.8333 239 34.6172 239 33.1016C239 31.5859 239.25 30.3698 239.75 29.4531C240.625 27.849 241.839 27.0469 243.391 27.0469C244.948 27.0469 246.161 27.849 247.031 29.4531C247.531 30.375 247.781 31.5911 247.781 33.1016C247.781 34.6172 247.531 35.8333 247.031 36.75C246.161 38.3542 244.948 39.1562 243.391 39.1562C241.839 39.1562 240.625 38.3542 239.75 36.75ZM250.125 36.75L251.391 36.1406H251.469C252.042 37.2656 252.807 37.8281 253.766 37.8281C254.5 37.8281 255.096 37.5651 255.555 37.0391C255.945 36.5911 256.141 36.0208 256.141 35.3281C256.141 34.5521 255.911 33.9688 255.453 33.5781C255 33.1823 254.435 32.9844 253.758 32.9844C253.221 32.9844 252.729 33.1484 252.281 33.4766L250.648 32.6875L251.547 28.8906C251.818 27.7656 252.62 27.2031 253.953 27.2031H257.047V27.2812L256.461 28.5312H254.07C253.466 28.5312 253.081 28.8359 252.914 29.4453L252.188 32.1094C252.661 31.776 253.19 31.6094 253.773 31.6094C254.867 31.6094 255.779 31.9219 256.508 32.5469C257.305 33.2344 257.703 34.1562 257.703 35.3125C257.703 36.375 257.354 37.2786 256.656 38.0234C255.943 38.7786 254.979 39.1562 253.766 39.1562C252.214 39.1562 251 38.3542 250.125 36.75ZM261.609 33.1016C261.609 34.4401 261.786 35.4531 262.141 36.1406C262.719 37.2656 263.484 37.8281 264.438 37.8281C265.401 37.8281 266.167 37.2656 266.734 36.1406C267.089 35.4375 267.266 34.4245 267.266 33.1016C267.266 31.7786 267.089 30.7656 266.734 30.0625C266.172 28.9375 265.406 28.375 264.438 28.375C263.474 28.375 262.708 28.9375 262.141 30.0625C261.786 30.7656 261.609 31.7786 261.609 33.1016ZM260.797 36.75C260.297 35.8333 260.047 34.6172 260.047 33.1016C260.047 31.5859 260.297 30.3698 260.797 29.4531C261.672 27.849 262.885 27.0469 264.438 27.0469C265.995 27.0469 267.208 27.849 268.078 29.4531C268.578 30.375 268.828 31.5911 268.828 33.1016C268.828 34.6172 268.578 35.8333 268.078 36.75C267.208 38.3542 265.995 39.1562 264.438 39.1562C262.885 39.1562 261.672 38.3542 260.797 36.75ZM271.172 36.75L272.438 36.1406H272.516C273.089 37.2656 273.854 37.8281 274.812 37.8281C275.547 37.8281 276.143 37.5651 276.602 37.0391C276.992 36.5911 277.188 36.0208 277.188 35.3281C277.188 34.5521 276.958 33.9688 276.5 33.5781C276.047 33.1823 275.482 32.9844 274.805 32.9844C274.268 32.9844 273.776 33.1484 273.328 33.4766L271.695 32.6875L272.594 28.8906C272.865 27.7656 273.667 27.2031 275 27.2031H278.094V27.2812L277.508 28.5312H275.117C274.513 28.5312 274.128 28.8359 273.961 29.4453L273.234 32.1094C273.708 31.776 274.237 31.6094 274.82 31.6094C275.914 31.6094 276.826 31.9219 277.555 32.5469C278.352 33.2344 278.75 34.1562 278.75 35.3125C278.75 36.375 278.401 37.2786 277.703 38.0234C276.99 38.7786 276.026 39.1562 274.812 39.1562C273.26 39.1562 272.047 38.3542 271.172 36.75Z" fill="white"/>
<g id="Group 1">
<g id="Screen" filter="url(#filter1_d)">
<rect x="46.2734" y="2" width="31.7266" height="54" rx="10" fill="#1D1B1B"/>
</g>
<rect id="Rectangle 4" width="13.3486" height="43.1391" rx="6.67428" transform="matrix(0.938602 -0.345003 0.435399 0.900237 46.2734 6.86871)" fill="url(#paint1_linear)"/>
<g id="Button">
<ellipse id="Ellipse 1" cx="61.0411" cy="43.5808" rx="4.60865" ry="3.90633" fill="white"/>
<g id="Ellipse 2" filter="url(#filter2_d)">
<ellipse cx="61.0411" cy="43.7109" rx="3.01946" ry="2.47401" fill="white"/>
</g>
</g>
<g id="Rectangle 2" filter="url(#filter3_d)">
<rect x="36" y="8.32195" width="23.5683" height="13.6976" rx="6.84878" fill="white"/>
</g>
<g id="weather">
<ellipse id="sun" cx="44.0976" cy="14.9637" rx="5.02054" ry="4.3698" fill="#FAEAA9"/>
<g id="cloud">
<ellipse id="Ellipse 3" cx="38.4293" cy="14.3281" rx="2.42929" ry="1.82737" fill="#C4C4C4"/>
<ellipse id="Ellipse 4" cx="39.401" cy="13.0569" rx="2.42929" ry="1.82737" fill="#C4C4C4"/>
<ellipse id="Ellipse 5" cx="41.5064" cy="13.0569" rx="2.42929" ry="1.82737" fill="#C4C4C4"/>
<ellipse id="Ellipse 6" cx="42.964" cy="14.487" rx="2.42929" ry="1.82737" fill="#C4C4C4"/>
<ellipse id="Ellipse 7" cx="41.3444" cy="14.487" rx="2.42929" ry="1.82737" fill="#C4C4C4"/>
</g>
<g id="cloud_2">
<ellipse id="Ellipse 3_2" cx="46.8508" cy="17.9829" rx="2.42929" ry="1.82737" fill="#C4C4C4"/>
<ellipse id="Ellipse 4_2" cx="47.8226" cy="16.7117" rx="2.42929" ry="1.82737" fill="#C4C4C4"/>
<ellipse id="Ellipse 5_2" cx="49.928" cy="16.7117" rx="2.42929" ry="1.82737" fill="#C4C4C4"/>
<ellipse id="Ellipse 6_2" cx="51.3855" cy="18.1418" rx="2.42929" ry="1.82737" fill="#C4C4C4"/>
<ellipse id="Ellipse 7_2" cx="49.766" cy="18.1418" rx="2.42929" ry="1.82737" fill="#C4C4C4"/>
</g>
</g>
</g>
</g>
<g id="mail">
<g id="Rectangle 3" filter="url(#filter4_d)">
<rect x="383.706" y="20.7462" width="48.6285" height="24.2538" rx="5" fill="#92E7EC"/>
</g>
<g id="Polygon 2" filter="url(#filter5_dd)">
<path d="M409.342 40.2965C408.599 40.9297 407.508 40.9346 406.76 40.3081L387.961 24.5602C386.532 23.3636 387.373 21.0352 389.237 21.0268L426.707 20.8583C428.571 20.8499 429.431 23.1707 428.013 24.38L409.342 40.2965Z" fill="#76E0E6"/>
</g>
</g>
<g id="frame" filter="url(#filter6_d)">
<g id="Group">
<path id="Vector" d="M32 80H-12C-12.5523 80 -13 80.485 -13 81.0833V91.9167C-13 92.515 -12.5523 93 -12 93H32C32.5523 93 33 92.515 33 91.9167V81.0833C33 80.485 32.5523 80 32 80Z" fill="#FC3D48"/>
</g>
<g id="Group_2">
<path id="Vector_2" d="M13 97.3333H-12C-12.5523 97.3333 -13 97.8184 -13 98.4167V109.25C-13 109.848 -12.5523 110.333 -12 110.333H13C13.5523 110.333 14 109.848 14 109.25V98.4167C14 97.8184 13.5523 97.3333 13 97.3333Z" fill="#1D1B1B"/>
<path id="Vector_3" d="M70 97.3333H19C18.4477 97.3333 18 97.8184 18 98.4167V109.25C18 109.848 18.4477 110.333 19 110.333H70C70.5523 110.333 71 109.848 71 109.25V98.4167C71 97.8184 70.5523 97.3333 70 97.3333Z" fill="#1D1B1B"/>
</g>
<g id="Group_3">
<path id="Vector_4" d="M42 114.667H-12C-12.5523 114.667 -13 115.152 -13 115.75V126.583C-13 127.182 -12.5523 127.667 -12 127.667H42C42.5523 127.667 43 127.182 43 126.583V115.75C43 115.152 42.5523 114.667 42 114.667Z" fill="#92E7EC"/>
<path id="Vector_5" d="M86 114.667H48C47.4477 114.667 47 115.152 47 115.75V126.583C47 127.182 47.4477 127.667 48 127.667H86C86.5523 127.667 87 127.182 87 126.583V115.75C87 115.152 86.5523 114.667 86 114.667Z" fill="#92E7EC"/>
<path id="Vector_6" d="M105 114.667H92C91.4477 114.667 91 115.152 91 115.75V126.583C91 127.182 91.4477 127.667 92 127.667H105C105.552 127.667 106 127.182 106 126.583V115.75C106 115.152 105.552 114.667 105 114.667Z" fill="#92E7EC"/>
</g>
<g id="Group_4">
<path id="Vector_7" d="M23 132H-12C-12.5523 132 -13 132.485 -13 133.083V143.917C-13 144.515 -12.5523 145 -12 145H23C23.5523 145 24 144.515 24 143.917V133.083C24 132.485 23.5523 132 23 132Z" fill="#FAEAA9"/>
<path id="Vector_8" d="M76 132H29C28.4477 132 28 132.485 28 133.083V143.917C28 144.515 28.4477 145 29 145H76C76.5523 145 77 144.515 77 143.917V133.083C77 132.485 76.5523 132 76 132Z" fill="#FAEAA9"/>
<path id="Vector_9" d="M156 132H82C81.4477 132 81 132.485 81 133.083V143.917C81 144.515 81.4477 145 82 145H156C156.552 145 157 144.515 157 143.917V133.083C157 132.485 156.552 132 156 132Z" fill="#FAEAA9"/>
</g>
</g>
<g id="frame_2" filter="url(#filter7_d)">
<g id="Group_5">
<path id="Vector_10" d="M755.198 232.027L804.899 232.067C805.523 232.067 806.029 231.553 806.03 230.919L806.039 219.433C806.039 218.798 805.534 218.284 804.91 218.283L755.209 218.244C754.585 218.243 754.079 218.757 754.078 219.392L754.069 230.878C754.068 231.512 754.574 232.027 755.198 232.027Z" fill="#FC3D48"/>
</g>
<g id="Group_6">
<path id="Vector_11" d="M776.674 213.666L804.914 213.688C805.538 213.689 806.044 213.175 806.044 212.541L806.053 201.055C806.054 200.42 805.549 199.905 804.925 199.905L776.685 199.883C776.061 199.882 775.555 200.396 775.555 201.03L775.546 212.517C775.545 213.151 776.05 213.666 776.674 213.666Z" fill="#1D1B1B"/>
<path id="Vector_12" d="M712.288 213.616L769.897 213.661C770.521 213.662 771.027 213.148 771.027 212.513L771.036 201.027C771.037 200.393 770.531 199.878 769.908 199.878L712.299 199.832C711.675 199.832 711.169 200.345 711.169 200.98L711.159 212.466C711.159 213.1 711.664 213.615 712.288 213.616Z" fill="#1D1B1B"/>
</g>
<g id="Group_7">
<path id="Vector_13" d="M743.931 195.262L804.928 195.31C805.552 195.311 806.058 194.797 806.059 194.162L806.068 182.676C806.068 182.042 805.563 181.527 804.939 181.527L743.942 181.478C743.318 181.478 742.812 181.992 742.811 182.626L742.802 194.112C742.802 194.747 743.307 195.261 743.931 195.262Z" fill="#92E7EC"/>
<path id="Vector_14" d="M694.229 195.223L737.153 195.257C737.777 195.258 738.283 194.744 738.284 194.11L738.293 182.623C738.294 181.989 737.788 181.474 737.164 181.474L694.24 181.44C693.616 181.439 693.11 181.953 693.11 182.588L693.101 194.074C693.1 194.708 693.606 195.223 694.229 195.223Z" fill="#92E7EC"/>
<path id="Vector_15" d="M672.767 195.206L687.452 195.218C688.076 195.218 688.582 194.705 688.582 194.07L688.591 182.584C688.592 181.95 688.087 181.435 687.463 181.435L672.778 181.423C672.154 181.422 671.648 181.936 671.648 182.571L671.639 194.057C671.638 194.691 672.143 195.206 672.767 195.206Z" fill="#92E7EC"/>
</g>
<g id="Group_8">
<path id="Vector_16" d="M765.408 176.903L804.943 176.934C805.567 176.935 806.073 176.421 806.073 175.787L806.082 164.301C806.083 163.666 805.578 163.152 804.954 163.151L765.418 163.12C764.795 163.119 764.288 163.633 764.288 164.268L764.279 175.754C764.278 176.388 764.784 176.903 765.408 176.903Z" fill="#FAEAA9"/>
<path id="Vector_17" d="M705.54 176.856L758.63 176.898C759.254 176.898 759.76 176.384 759.761 175.75L759.77 164.264C759.77 163.63 759.265 163.115 758.641 163.114L705.551 163.072C704.927 163.072 704.421 163.586 704.42 164.22L704.411 175.706C704.411 176.341 704.916 176.855 705.54 176.856Z" fill="#FAEAA9"/>
<path id="Vector_18" d="M615.173 176.784L698.762 176.85C699.386 176.851 699.892 176.337 699.893 175.703L699.902 164.217C699.902 163.582 699.397 163.068 698.773 163.067L615.184 163.001C614.56 163 614.054 163.514 614.054 164.149L614.045 175.635C614.044 176.269 614.549 176.784 615.173 176.784Z" fill="#FAEAA9"/>
</g>
</g>
<g id="frame2">
<g id="Group_9">
<path id="Vector_19" d="M76 238H45C42.2386 238 40 240.239 40 243V249C40 251.761 42.2386 254 45 254H76C78.7614 254 81 251.761 81 249V243C81 240.239 78.7614 238 76 238Z" fill="#92E7EC"/>
<path id="Vector_20" d="M31 238H2C-0.761424 238 -3 240.239 -3 243V249C-3 251.761 -0.761424 254 2 254H31C33.7614 254 36 251.761 36 249V243C36 240.239 33.7614 238 31 238Z" fill="#92E7EC"/>
</g>
<g id="Group_10">
<path id="Vector_21" d="M67 185H59C56.2386 185 54 187.239 54 190V196C54 198.761 56.2386 201 59 201H67C69.7614 201 72 198.761 72 196V190C72 187.239 69.7614 185 67 185Z" fill="#775D5D"/>
<path id="Vector_22" d="M45 185H18C15.2386 185 13 187.239 13 190V196C13 198.761 15.2386 201 18 201H45C47.7614 201 50 198.761 50 196V190C50 187.239 47.7614 185 45 185Z" fill="#775D5D"/>
</g>
<g id="Group_11">
<path id="Vector_23" d="M66 159H8C5.23858 159 3 161.239 3 164V170C3 172.761 5.23858 175 8 175H66C68.7614 175 71 172.761 71 170V164C71 161.239 68.7614 159 66 159Z" fill="#ABD68A"/>
</g>
<g id="Group_12">
<path id="Vector_24" d="M72 212H3C0.238576 212 -2 214.239 -2 217V223C-2 225.761 0.238576 228 3 228H72C74.7614 228 77 225.761 77 223V217C77 214.239 74.7614 212 72 212Z" fill="#DCD991"/>
</g>
</g>
<g id="frame2_2">
<g id="Group_13">
<path id="Vector_25" d="M817 338H788C785.239 338 783 340.239 783 343V349C783 351.761 785.239 354 788 354H817C819.761 354 822 351.761 822 349V343C822 340.239 819.761 338 817 338Z" fill="#92E7EC"/>
<path id="Vector_26" d="M774 338H705C702.239 338 700 340.239 700 343V349C700 351.761 702.239 354 705 354H774C776.761 354 779 351.761 779 349V343C779 340.239 776.761 338 774 338Z" fill="#92E7EC"/>
<path id="Vector_27" d="M691 338H680C677.239 338 675 340.239 675 343V349C675 351.761 677.239 354 680 354H691C693.761 354 696 351.761 696 349V343C696 340.239 693.761 338 691 338Z" fill="#92E7EC"/>
</g>
<g id="Group_14">
<path id="Vector_28" d="M831 285H804C801.239 285 799 287.239 799 290V296C799 298.761 801.239 301 804 301H831C833.761 301 836 298.761 836 296V290C836 287.239 833.761 285 831 285Z" fill="#775D5D"/>
</g>
<g id="Group_15">
<path id="Vector_29" d="M852 259H794C791.239 259 789 261.239 789 264V270C789 272.761 791.239 275 794 275H852C854.761 275 857 272.761 857 270V264C857 261.239 854.761 259 852 259Z" fill="#ABD68A"/>
<path id="Vector_30" d="M780 259H764C761.239 259 759 261.239 759 264V270C759 272.761 761.239 275 764 275H780C782.761 275 785 272.761 785 270V264C785 261.239 782.761 259 780 259Z" fill="#ABD68A"/>
<path id="Vector_31" d="M750 259H734C731.239 259 729 261.239 729 264V270C729 272.761 731.239 275 734 275H750C752.761 275 755 272.761 755 270V264C755 261.239 752.761 259 750 259Z" fill="#ABD68A"/>
<path id="Vector_32" d="M720 259H674C671.239 259 669 261.239 669 264V270C669 272.761 671.239 275 674 275H720C722.761 275 725 272.761 725 270V264C725 261.239 722.761 259 720 259Z" fill="#ABD68A"/>
<path id="Vector_33" d="M660 259H624C621.239 259 619 261.239 619 264V270C619 272.761 621.239 275 624 275H660C662.761 275 665 272.761 665 270V264C665 261.239 662.761 259 660 259Z" fill="#ABD68A"/>
</g>
<g id="Group_16">
<path id="Vector_34" d="M858 312H789C786.239 312 784 314.239 784 317V323C784 325.761 786.239 328 789 328H858C860.761 328 863 325.761 863 323V317C863 314.239 860.761 312 858 312Z" fill="#DCD991"/>
<path id="Vector_35" d="M775 312H720C717.239 312 715 314.239 715 317V323C715 325.761 717.239 328 720 328H775C777.761 328 780 325.761 780 323V317C780 314.239 777.761 312 775 312Z" fill="#DCD991"/>
<path id="Vector_36" d="M706 312H686C683.239 312 681 314.239 681 317V323C681 325.761 683.239 328 686 328H706C708.761 328 711 325.761 711 323V317C711 314.239 708.761 312 706 312Z" fill="#DCD991"/>
</g>
</g>
<g id="ready">
<g id="Group_17" filter="url(#filter8_d)">
<g id="Group 2">
<g id="Monitor">
<rect id="Rectangle 7" width="431.884" height="213.697" rx="20" transform="matrix(0.998735 -0.0569573 0.385025 0.923821 86.5758 172.269)" fill="#C4C4C4"/>
<rect id="Rectangle 9" width="431.884" height="213.697" rx="20" transform="matrix(0.998754 -0.0569116 0.384914 0.923827 94.4904 171.818)" fill="#C4C4C4"/>
<rect id="Rectangle 8" width="431.884" height="213.697" rx="20" transform="matrix(0.998754 -0.0569116 0.384914 0.923827 90.1716 173.607)" fill="#1D1B1B"/>
</g>
<g id="Button_2">
<ellipse id="Ellipse 8" rx="34.0613" ry="19.5452" transform="matrix(0.998754 -0.0569116 0.384914 0.923827 378.082 330.797)" fill="white"/>
<g id="Ellipse 9" filter="url(#filter9_d)">
<ellipse rx="22.1099" ry="12.2572" transform="matrix(0.998754 -0.0569116 0.384914 0.923827 378.082 330.797)" fill="white"/>
</g>
</g>
<g id="portfolio">
<g id="Rectangle 10" filter="url(#filter10_d)">
<rect width="158.953" height="153.192" rx="20" transform="matrix(0.998754 -0.0569116 0.384914 0.923827 113.106 183.152)" fill="#242BD6"/>
</g>
<rect id="Rectangle 11" width="41.0482" height="20.2525" transform="matrix(0.998754 -0.0569116 0.384914 0.923827 225.703 198.348)" fill="white"/>
<g id="Portt">
<g id="user">
<ellipse id="Ellipse 11" rx="19.214" ry="9.01348" transform="matrix(0.998754 -0.0569116 0.384914 0.923827 254.106 215.081)" fill="#C4C4C4"/>
<ellipse id="Ellipse 10" rx="9.36068" ry="4.00599" transform="matrix(0.998754 -0.0569116 0.384914 0.923827 250.123 205.521)" fill="#C4C4C4"/>
</g>
<path id="Resume" d="M147.111 215.505C147.312 216.158 147.072 216.532 146.392 216.626C146.064 216.645 145.737 216.564 145.41 216.383C145.09 216.191 144.867 215.943 144.741 215.64L141.534 207.942C141.419 207.639 141.438 207.383 141.591 207.174C141.74 206.955 141.978 206.837 142.305 206.818L143.166 206.769L145.325 206.646L149.662 206.399C149.732 206.395 149.804 206.396 149.879 206.403L149.984 206.397C150.813 206.372 151.558 206.507 152.22 206.802C152.882 207.096 153.418 207.448 153.828 207.857C154.233 208.255 154.524 208.665 154.7 209.087C154.88 209.52 154.942 209.955 154.883 210.39C154.832 210.814 154.605 211.204 154.202 211.56C153.811 211.914 153.21 212.126 152.4 212.194L149.31 212.37C149.629 212.906 149.989 213.296 150.39 213.539C150.779 213.783 151.19 213.892 151.623 213.868L155.415 213.652C155.748 213.644 156.064 213.742 156.365 213.947C156.678 214.151 156.897 214.404 157.023 214.707C157.134 215 157.12 215.256 156.984 215.474C156.854 215.681 156.634 215.799 156.322 215.828L152.214 216.062C151.352 216.122 150.437 215.853 149.469 215.254C148.501 214.655 147.758 213.922 147.24 213.054C146.623 212.091 146.29 211.55 146.241 211.431C146.114 211.128 146.12 210.868 146.256 210.649C146.4 210.419 146.636 210.295 146.964 210.276L151.599 210.012C151.816 209.989 151.98 209.935 152.089 209.851C152.205 209.756 152.278 209.658 152.307 209.556C152.332 209.444 152.322 209.334 152.277 209.225C152.232 209.117 152.154 209.016 152.043 208.923C151.928 208.819 151.778 208.733 151.595 208.666C151.418 208.587 151.216 208.549 150.99 208.551L146.232 208.822L144.827 208.902C144.528 208.93 144.434 209.079 144.547 209.35L147.111 215.505ZM162.976 215.449C161.932 215.475 161.062 215.297 160.364 214.916C159.661 214.524 159.084 214.074 158.634 213.568C158.179 213.051 157.838 212.522 157.613 211.98C157.378 211.417 157.264 210.87 157.27 210.337C157.283 209.794 157.467 209.301 157.822 208.86C158.185 208.407 158.773 208.152 159.588 208.094L166.259 207.714C166.587 207.695 166.905 207.782 167.213 207.975C167.528 208.157 167.745 208.388 167.862 208.67C167.984 208.962 167.97 209.218 167.822 209.437C167.681 209.644 167.446 209.758 167.119 209.776L160.553 210.15C160.295 210.165 160.101 210.259 159.97 210.433C159.85 210.606 159.797 210.825 159.812 211.09C159.838 211.355 159.903 211.612 160.007 211.861C160.12 212.131 160.271 212.394 160.462 212.649C160.663 212.904 160.892 213.107 161.147 213.259C161.409 213.399 161.671 213.467 161.933 213.463L168.499 213.089C168.827 213.07 169.142 213.152 169.446 213.334C169.761 213.516 169.975 213.742 170.088 214.013C170.205 214.294 170.187 214.539 170.035 214.747C169.893 214.955 169.659 215.068 169.331 215.086L162.976 215.449ZM168.747 211.313C168.833 211.518 168.808 211.703 168.672 211.866C168.555 212.016 168.362 212.099 168.093 212.115L162.352 212.442C162.083 212.457 161.825 212.4 161.58 212.27C161.329 212.129 161.161 211.956 161.075 211.75C160.994 211.555 161.016 211.376 161.14 211.214C161.268 211.063 161.467 210.979 161.736 210.964L167.477 210.637C167.747 210.622 168.006 210.684 168.257 210.825C168.503 210.955 168.666 211.118 168.747 211.313ZM180.995 207.838C181.108 208.109 181.086 208.343 180.928 208.54C180.778 208.726 180.539 208.829 180.211 208.847L172.785 209.27C172.633 209.279 172.521 209.313 172.45 209.373C172.379 209.432 172.334 209.496 172.314 209.563C172.29 209.62 172.287 209.67 172.305 209.713C172.327 209.768 172.376 209.826 172.449 209.888C172.519 209.94 172.612 209.99 172.728 210.038C172.839 210.076 172.974 210.096 173.13 210.099L178.871 209.772C179.613 209.74 180.278 209.841 180.866 210.073C181.45 210.295 181.913 210.573 182.257 210.909C182.607 211.232 182.854 211.567 182.999 211.914C183.139 212.249 183.175 212.596 183.109 212.955C183.038 213.302 182.817 213.62 182.445 213.907C182.081 214.183 181.53 214.341 180.793 214.383C180.668 214.402 180.577 214.412 180.519 214.416L173.707 214.804C173.379 214.823 173.062 214.752 172.756 214.592C172.457 214.421 172.253 214.205 172.145 213.945C172.032 213.675 172.054 213.441 172.212 213.243C172.362 213.057 172.601 212.955 172.929 212.936L180.162 212.524C180.342 212.525 180.473 212.495 180.556 212.435C180.651 212.374 180.714 212.31 180.745 212.242C180.777 212.173 180.779 212.107 180.752 212.042C180.738 212.009 180.686 211.957 180.596 211.884C180.502 211.801 180.387 211.741 180.252 211.704C180.124 211.656 179.97 211.632 179.79 211.631L174.031 211.959C173.348 211.987 172.732 211.889 172.183 211.665C171.63 211.431 171.19 211.151 170.863 210.826C170.536 210.501 170.303 210.171 170.163 209.836C170.023 209.5 169.979 209.164 170.031 208.829C170.09 208.482 170.287 208.177 170.621 207.914C170.962 207.64 171.467 207.473 172.137 207.412C172.249 207.395 172.335 207.384 172.393 207.381L179.433 206.98C179.761 206.961 180.075 207.037 180.374 207.209C180.68 207.369 180.887 207.579 180.995 207.838ZM191.637 214.098C191.029 214.133 190.399 214.102 189.748 214.006C189.109 213.91 188.468 213.752 187.826 213.534C187.179 213.305 186.563 212.991 185.977 212.592C185.392 212.193 184.96 211.702 184.681 211.12L184.397 210.438L183.24 207.661C183.113 207.357 183.127 207.102 183.28 206.894C183.44 206.674 183.684 206.555 184.011 206.536C184.736 206.55 185.263 206.88 185.592 207.527L185.89 208.241L186.824 210.482C186.987 210.816 187.239 211.09 187.579 211.304C187.927 211.505 188.28 211.663 188.639 211.775C189.009 211.887 189.371 211.966 189.726 212.012C190.092 212.058 190.445 212.071 190.785 212.052C191.124 212.033 191.444 211.981 191.745 211.897C192.057 211.813 192.339 211.697 192.589 211.55C192.851 211.402 193.059 211.213 193.215 210.982C193.378 210.74 193.401 210.451 193.284 210.114L192.351 207.873L192.053 207.158C191.927 206.855 191.94 206.6 192.093 206.391C192.253 206.172 192.497 206.053 192.825 206.034C193.549 206.048 194.082 206.378 194.423 207.023L195.58 209.8L195.864 210.482C196.073 211.069 196.054 211.585 195.809 212.032C195.575 212.477 195.243 212.845 194.813 213.136C194.378 213.415 193.89 213.637 193.347 213.801C192.816 213.964 192.246 214.063 191.637 214.098ZM199.919 205.546C200.328 205.523 200.753 205.565 201.194 205.673C201.646 205.781 202.105 205.948 202.572 206.177C202.653 206.227 202.74 206.278 202.832 206.328C202.868 206.271 202.91 206.213 202.958 206.155C203.217 205.885 203.512 205.674 203.845 205.522C204.188 205.37 204.559 205.282 204.957 205.259C205.367 205.236 205.792 205.278 206.232 205.386C206.684 205.493 207.14 205.667 207.599 205.907C208.066 206.135 208.522 206.453 208.967 206.86C209.424 207.266 209.774 207.761 210.018 208.346L211.459 211.805C211.659 212.458 211.42 212.832 210.74 212.926C210.412 212.945 210.085 212.864 209.758 212.683C209.438 212.491 209.215 212.243 209.089 211.94L207.702 208.611C207.593 208.351 207.45 208.137 207.273 207.97C207.091 207.792 206.915 207.658 206.746 207.568C206.572 207.467 206.406 207.399 206.247 207.364C206.084 207.318 205.933 207.299 205.792 207.307C205.652 207.315 205.523 207.35 205.405 207.412C205.294 207.462 205.197 207.545 205.113 207.661C205.025 207.766 204.967 207.913 204.938 208.103C204.905 208.283 204.936 208.502 205.033 208.763L206.42 212.092C206.621 212.745 206.381 213.119 205.701 213.213C205.373 213.232 205.046 213.151 204.719 212.97C204.399 212.778 204.176 212.53 204.05 212.227L202.663 208.898C202.555 208.638 202.412 208.425 202.234 208.257C202.052 208.079 201.877 207.945 201.707 207.855C201.533 207.754 201.367 207.686 201.209 207.651C201.046 207.605 200.894 207.586 200.754 207.594C200.613 207.602 200.484 207.637 200.366 207.699C200.255 207.749 200.158 207.833 200.075 207.948C199.986 208.053 199.928 208.2 199.899 208.39C199.866 208.57 199.898 208.789 199.994 209.05L201.381 212.379C201.594 213.032 201.36 213.405 200.68 213.5C200.352 213.518 200.025 213.437 199.698 213.256C199.378 213.064 199.155 212.816 199.029 212.513L197.588 209.054C197.368 208.468 197.304 207.956 197.397 207.519C197.491 207.081 197.667 206.728 197.926 206.458C198.181 206.178 198.474 205.961 198.806 205.809C199.15 205.657 199.521 205.569 199.919 205.546ZM155.614 232.892C154.57 232.918 153.699 232.74 153.001 232.359C152.299 231.967 151.722 231.518 151.271 231.011C150.816 230.494 150.476 229.965 150.25 229.424C150.016 228.861 149.902 228.313 149.907 227.781C149.92 227.237 150.105 226.744 150.46 226.303C150.822 225.85 151.411 225.595 152.226 225.537L158.897 225.157C159.225 225.138 159.543 225.226 159.851 225.419C160.166 225.6 160.382 225.832 160.5 226.113C160.621 226.405 160.608 226.661 160.46 226.88C160.319 227.088 160.084 227.201 159.756 227.219L153.19 227.594C152.933 227.608 152.739 227.702 152.607 227.876C152.488 228.049 152.435 228.268 152.45 228.534C152.476 228.798 152.541 229.055 152.645 229.304C152.758 229.574 152.909 229.837 153.099 230.092C153.301 230.347 153.53 230.55 153.784 230.702C154.047 230.842 154.309 230.91 154.571 230.906L161.137 230.532C161.464 230.514 161.78 230.595 162.084 230.778C162.399 230.959 162.613 231.185 162.726 231.456C162.843 231.737 162.825 231.982 162.672 232.19C162.531 232.398 162.297 232.511 161.969 232.53L155.614 232.892ZM161.385 228.756C161.471 228.962 161.446 229.146 161.31 229.309C161.193 229.459 161 229.543 160.731 229.558L154.99 229.885C154.721 229.9 154.463 229.843 154.217 229.713C153.967 229.572 153.799 229.399 153.713 229.193C153.632 228.998 153.653 228.82 153.777 228.657C153.906 228.506 154.105 228.423 154.374 228.407L160.115 228.08C160.384 228.065 160.644 228.128 160.894 228.268C161.14 228.399 161.304 228.561 161.385 228.756Z" fill="white"/>
<g id="Group_18">
<path id="Vector_37" d="M204.076 234.315L148.25 237.496C147.287 237.551 146.685 238.025 146.905 238.555L148.504 242.393C148.725 242.923 149.685 243.308 150.649 243.253L206.474 240.072C207.438 240.017 208.04 239.543 207.819 239.013L206.22 235.175C205.999 234.645 205.039 234.26 204.076 234.315Z" fill="white"/>
<path id="Vector_38" d="M229.372 232.873L211.054 233.917C210.091 233.972 209.489 234.446 209.709 234.976L211.308 238.814C211.529 239.344 212.489 239.729 213.453 239.674L231.771 238.63C232.734 238.575 233.336 238.101 233.115 237.571L231.516 233.733C231.296 233.203 230.335 232.818 229.372 232.873Z" fill="white"/>
<path id="Vector_39" d="M246.817 231.879L236.35 232.476C235.387 232.53 234.785 233.005 235.005 233.534L236.604 237.372C236.825 237.902 237.785 238.287 238.749 238.232L249.216 237.636C250.18 237.581 250.782 237.107 250.561 236.577L248.962 232.739C248.741 232.209 247.781 231.824 246.817 231.879Z" fill="white"/>
</g>
<g id="Group_19">
<path id="Vector_40" d="M223.411 241.071L178.053 243.656C177.089 243.71 176.487 244.185 176.708 244.714L178.307 248.552C178.528 249.082 179.488 249.467 180.451 249.412L225.81 246.828C226.773 246.773 227.375 246.299 227.155 245.769L225.555 241.931C225.335 241.401 224.375 241.016 223.411 241.071Z" fill="white"/>
</g>
<g id="Group_20">
<path id="Vector_41" d="M247.308 248.059L191.482 251.24C190.518 251.295 189.916 251.769 190.137 252.299L191.736 256.137C191.957 256.666 192.917 257.052 193.881 256.997L249.706 253.816C250.67 253.761 251.272 253.287 251.051 252.757L249.452 248.919C249.231 248.389 248.271 248.004 247.308 248.059Z" fill="white"/>
<path id="Vector_42" d="M272.604 246.617L254.286 247.661C253.322 247.716 252.72 248.19 252.941 248.72L254.54 252.558C254.761 253.088 255.721 253.473 256.684 253.418L275.002 252.374C275.966 252.319 276.568 251.845 276.347 251.315L274.748 247.477C274.527 246.947 273.567 246.562 272.604 246.617Z" fill="white"/>
<path id="Vector_43" d="M290.049 245.623L279.582 246.22C278.618 246.274 278.016 246.749 278.237 247.278L279.836 251.116C280.057 251.646 281.017 252.031 281.981 251.976L292.448 251.38C293.411 251.325 294.013 250.851 293.793 250.321L292.194 246.483C291.973 245.953 291.013 245.568 290.049 245.623Z" fill="white"/>
</g>
<g id="Group_21">
<path id="Vector_44" d="M266.643 254.815L221.285 257.399C220.321 257.454 219.719 257.928 219.94 258.458L221.539 262.296C221.76 262.826 222.72 263.211 223.683 263.156L269.042 260.572C270.005 260.517 270.607 260.043 270.386 259.513L268.787 255.675C268.567 255.145 267.607 254.76 266.643 254.815Z" fill="white"/>
</g>
<g id="Wireframer">
<g clip-path="url(#clip0)">
<g id="Group_22">
<path id="Vector_45" d="M211.162 266.326L155.336 269.507C154.373 269.562 153.77 270.036 153.991 270.566L155.59 274.403C155.811 274.933 156.771 275.318 157.735 275.264L213.56 272.082C214.524 272.028 215.126 271.553 214.905 271.024L213.306 267.186C213.085 266.656 212.125 266.271 211.162 266.326Z" fill="white"/>
<path id="Vector_46" d="M236.458 264.884L218.141 265.928C217.177 265.983 216.575 266.457 216.796 266.987L218.395 270.825C218.616 271.355 219.576 271.74 220.539 271.685L238.857 270.641C239.82 270.586 240.423 270.112 240.202 269.582L238.603 265.744C238.382 265.214 237.422 264.829 236.458 264.884Z" fill="white"/>
<path id="Vector_47" d="M253.904 263.89L243.437 264.486C242.473 264.541 241.871 265.015 242.092 265.545L243.691 269.383C243.912 269.913 244.872 270.298 245.835 270.243L256.302 269.647C257.266 269.592 257.868 269.118 257.647 268.588L256.048 264.75C255.827 264.22 254.867 263.835 253.904 263.89Z" fill="white"/>
</g>
<g id="Group_23">
<path id="Vector_48" d="M230.498 273.082L185.139 275.666C184.176 275.721 183.574 276.195 183.794 276.725L185.393 280.563C185.614 281.093 186.574 281.478 187.538 281.423L232.896 278.839C233.86 278.784 234.462 278.31 234.241 277.78L232.642 273.942C232.421 273.412 231.461 273.027 230.498 273.082Z" fill="white"/>
</g>
</g>
</g>
<g id="Group_24">
<path id="Vector_49" d="M233.986 284.67L178.161 287.851C177.197 287.906 176.595 288.38 176.816 288.91L178.415 292.748C178.636 293.278 179.596 293.663 180.559 293.608L236.385 290.427C237.348 290.372 237.951 289.898 237.73 289.368L236.131 285.53C235.91 285 234.95 284.615 233.986 284.67Z" fill="white"/>
<path id="Vector_50" d="M259.282 283.229L240.965 284.273C240.001 284.327 239.399 284.802 239.62 285.331L241.219 289.169C241.44 289.699 242.4 290.084 243.363 290.029L261.681 288.986C262.644 288.931 263.247 288.457 263.026 287.927L261.427 284.089C261.206 283.559 260.246 283.174 259.282 283.229Z" fill="white"/>
<path id="Vector_51" d="M276.728 282.235L266.261 282.831C265.297 282.886 264.695 283.36 264.916 283.89L266.515 287.728C266.736 288.258 267.696 288.643 268.659 288.588L279.127 287.992C280.09 287.937 280.692 287.463 280.471 286.933L278.872 283.095C278.651 282.565 277.691 282.18 276.728 282.235Z" fill="white"/>
</g>
<g id="Group_25">
<path id="Vector_52" d="M253.322 291.426L207.963 294.011C207 294.066 206.398 294.54 206.618 295.07L208.217 298.908C208.438 299.438 209.398 299.823 210.362 299.768L255.72 297.183C256.684 297.128 257.286 296.654 257.065 296.124L255.466 292.286C255.245 291.756 254.285 291.371 253.322 291.426Z" fill="white"/>
</g>
<rect id="Rectangle 13" width="39.3014" height="8.82802" transform="matrix(0.998754 -0.0569116 0.384914 0.923827 234.988 216.346)" fill="#242BD6"/>
<rect id="Rectangle 12" width="158.953" height="155.699" rx="20" transform="matrix(0.998754 -0.0569116 0.384914 0.923827 111.887 180.226)" fill="url(#paint2_linear)"/>
</g>
</g>
</g>
</g>
<g id="Group_26">
<g id="message">
<g id="Rectangle 14" filter="url(#filter11_d)">
<rect width="188.228" height="69.6969" rx="30" transform="matrix(0.998314 -0.0580414 0.397798 0.917473 398.85 209.515)" fill="white"/>
</g>
<g id="Rectangle 15" filter="url(#filter12_d)">
<rect width="140.4" height="43.1293" rx="21.5646" transform="matrix(0.998314 -0.0580414 0.397798 0.917473 433.945 218.833)" fill="#92E7EC"/>
</g>
<ellipse id="Ellipse 12" rx="22.8856" ry="13.6288" transform="matrix(0.998314 -0.0580414 0.397798 0.917473 447.391 228.599)" fill="#C4C4C4"/>
<ellipse id="Ellipse 13" rx="22.8856" ry="13.6288" transform="matrix(0.998314 -0.0580414 0.397798 0.917473 449.719 229.113)" fill="white"/>
<g id="Group_27">
<path id="Vector_53" d="M540.861 217.81L500.336 220.166C499.636 220.207 499.184 220.504 499.325 220.831L500.35 223.194C500.492 223.521 501.173 223.752 501.873 223.712L542.399 221.355C543.098 221.315 543.55 221.017 543.409 220.691L542.384 218.327C542.243 218.001 541.561 217.769 540.861 217.81Z" fill="#3D50FC"/>
</g>
<g id="Group_28">
<path id="Vector_54" d="M508.717 224.525L476.424 226.403C475.724 226.443 475.272 226.741 475.413 227.067L476.438 229.431C476.58 229.757 477.261 229.989 477.961 229.948L510.255 228.071C510.954 228.03 511.406 227.733 511.265 227.406L510.24 225.043C510.099 224.716 509.417 224.485 508.717 224.525Z" fill="#3D50FC"/>
<path id="Vector_55" d="M557.475 221.691L513.783 224.231C513.084 224.271 512.631 224.569 512.773 224.895L513.798 227.259C513.939 227.585 514.621 227.817 515.32 227.776L559.012 225.236C559.712 225.195 560.164 224.898 560.022 224.571L558.998 222.208C558.856 221.881 558.174 221.65 557.475 221.691Z" fill="#3D50FC"/>
<path id="Vector_56" d="M568.873 221.028L562.541 221.396C561.841 221.437 561.389 221.734 561.53 222.061L562.555 224.424C562.697 224.751 563.378 224.982 564.078 224.942L570.41 224.573C571.109 224.533 571.562 224.235 571.42 223.909L570.395 221.545C570.254 221.219 569.572 220.987 568.873 221.028Z" fill="#3D50FC"/>
</g>
<g id="Group_29">
<path id="Vector_57" d="M547.81 227.099L501.585 229.786C500.886 229.827 500.434 230.125 500.575 230.451L501.6 232.815C501.742 233.141 502.423 233.372 503.123 233.332L549.347 230.644C550.047 230.604 550.499 230.306 550.358 229.98L549.333 227.616C549.191 227.29 548.51 227.058 547.81 227.099Z" fill="#3D50FC"/>
</g>
<g id="Group_30">
<path id="Vector_58" d="M521.049 233.501L489.388 235.342C488.688 235.383 488.236 235.68 488.378 236.006L489.402 238.37C489.544 238.696 490.226 238.928 490.925 238.887L522.586 237.047C523.285 237.006 523.738 236.708 523.596 236.382L522.571 234.019C522.43 233.692 521.748 233.461 521.049 233.501Z" fill="#3D50FC"/>
<path id="Vector_59" d="M564.107 230.998L526.114 233.207C525.415 233.247 524.963 233.545 525.104 233.871L526.129 236.235C526.27 236.561 526.952 236.793 527.652 236.752L565.644 234.543C566.344 234.503 566.796 234.205 566.655 233.879L565.63 231.515C565.488 231.189 564.807 230.957 564.107 230.998Z" fill="#3D50FC"/>
</g>
<g id="Group_31">
<path id="Vector_60" d="M527.014 233.219L486.489 235.575C485.789 235.616 485.337 235.914 485.479 236.24L486.503 238.604C486.645 238.93 487.327 239.162 488.026 239.121L528.552 236.765C529.251 236.724 529.703 236.427 529.562 236.1L528.537 233.737C528.396 233.41 527.714 233.179 527.014 233.219Z" fill="#3D50FC"/>
</g>
<g id="Group_32">
<path id="Vector_61" d="M494.871 239.935L462.577 241.812C461.877 241.853 461.425 242.15 461.566 242.477L462.591 244.84C462.733 245.167 463.414 245.398 464.114 245.358L496.408 243.48C497.107 243.439 497.56 243.142 497.418 242.815L496.393 240.452C496.252 240.125 495.57 239.894 494.871 239.935Z" fill="#3D50FC"/>
<path id="Vector_62" d="M543.628 237.1L499.936 239.64C499.237 239.681 498.785 239.978 498.926 240.305L499.951 242.668C500.092 242.995 500.774 243.226 501.474 243.185L545.165 240.645C545.865 240.605 546.317 240.307 546.176 239.981L545.151 237.617C545.009 237.291 544.328 237.059 543.628 237.1Z" fill="#3D50FC"/>
<path id="Vector_63" d="M555.026 236.437L548.694 236.805C547.994 236.846 547.542 237.143 547.684 237.47L548.708 239.833C548.85 240.16 549.532 240.391 550.231 240.351L556.563 239.983C557.263 239.942 557.715 239.644 557.573 239.318L556.549 236.954C556.407 236.628 555.725 236.396 555.026 236.437Z" fill="#3D50FC"/>
</g>
<g id="Group_33">
<path id="Vector_64" d="M533.963 242.508L487.739 245.196C487.039 245.236 486.587 245.534 486.728 245.86L487.753 248.224C487.895 248.55 488.576 248.782 489.276 248.741L535.501 246.054C536.2 246.013 536.652 245.715 536.511 245.389L535.486 243.025C535.344 242.699 534.663 242.468 533.963 242.508Z" fill="#3D50FC"/>
</g>
<g id="Group_34">
<path id="Vector_65" d="M507.202 248.911L475.541 250.751C474.842 250.792 474.389 251.089 474.531 251.416L475.556 253.779C475.697 254.106 476.379 254.337 477.078 254.297L508.739 252.456C509.438 252.415 509.891 252.118 509.749 251.791L508.724 249.428C508.583 249.101 507.901 248.87 507.202 248.911Z" fill="#3D50FC"/>
<path id="Vector_66" d="M550.26 246.407L512.267 248.616C511.568 248.657 511.116 248.954 511.257 249.281L512.282 251.644C512.424 251.971 513.105 252.202 513.805 252.162L551.798 249.953C552.497 249.912 552.949 249.614 552.808 249.288L551.783 246.924C551.641 246.598 550.96 246.366 550.26 246.407Z" fill="#3D50FC"/>
</g>
</g>
</g>
</g>
</g>
</g>
<defs>
<filter id="filter0_d" x="-17" y="-21" width="853" height="110" filterUnits="userSpaceOnUse" color-interpolation-filters="sRGB">
<feFlood flood-opacity="0" result="BackgroundImageFix"/>
<feColorMatrix in="SourceAlpha" type="matrix" values="0 0 0 0 0 0 0 0 0 0 0 0 0 0 0 0 0 0 127 0"/>
<feOffset dx="10" dy="10"/>
<feGaussianBlur stdDeviation="10"/>
<feColorMatrix type="matrix" values="0 0 0 0 0 0 0 0 0 0 0 0 0 0 0 0 0 0 0.25 0"/>
<feBlend mode="normal" in2="BackgroundImageFix" result="effect1_dropShadow"/>
<feBlend mode="normal" in="SourceGraphic" in2="effect1_dropShadow" result="shape"/>
</filter>
<filter id="filter1_d" x="36.2734" y="-8" width="71.7266" height="94" filterUnits="userSpaceOnUse" color-interpolation-filters="sRGB">
<feFlood flood-opacity="0" result="BackgroundImageFix"/>
<feColorMatrix in="SourceAlpha" type="matrix" values="0 0 0 0 0 0 0 0 0 0 0 0 0 0 0 0 0 0 127 0"/>
<feOffset dx="10" dy="10"/>
<feGaussianBlur stdDeviation="10"/>
<feColorMatrix type="matrix" values="0 0 0 0 0 0 0 0 0 0 0 0 0 0 0 0 0 0 0.25 0"/>
<feBlend mode="normal" in2="BackgroundImageFix" result="effect1_dropShadow"/>
<feBlend mode="normal" in="SourceGraphic" in2="effect1_dropShadow" result="shape"/>
</filter>
<filter id="filter2_d" x="48.0216" y="35.2369" width="26.0389" height="24.948" filterUnits="userSpaceOnUse" color-interpolation-filters="sRGB">
<feFlood flood-opacity="0" result="BackgroundImageFix"/>
<feColorMatrix in="SourceAlpha" type="matrix" values="0 0 0 0 0 0 0 0 0 0 0 0 0 0 0 0 0 0 127 0"/>
<feOffset dy="4"/>
<feGaussianBlur stdDeviation="5"/>
<feColorMatrix type="matrix" values="0 0 0 0 0 0 0 0 0 0 0 0 0 0 0 0 0 0 0.25 0"/>
<feBlend mode="normal" in2="BackgroundImageFix" result="effect1_dropShadow"/>
<feBlend mode="normal" in="SourceGraphic" in2="effect1_dropShadow" result="shape"/>
</filter>
<filter id="filter3_d" x="26" y="-1.67805" width="63.5683" height="53.6976" filterUnits="userSpaceOnUse" color-interpolation-filters="sRGB">
<feFlood flood-opacity="0" result="BackgroundImageFix"/>
<feColorMatrix in="SourceAlpha" type="matrix" values="0 0 0 0 0 0 0 0 0 0 0 0 0 0 0 0 0 0 127 0"/>
<feOffset dx="10" dy="10"/>
<feGaussianBlur stdDeviation="10"/>
<feColorMatrix type="matrix" values="0 0 0 0 0 0 0 0 0 0 0 0 0 0 0 0 0 0 0.25 0"/>
<feBlend mode="normal" in2="BackgroundImageFix" result="effect1_dropShadow"/>
<feBlend mode="normal" in="SourceGraphic" in2="effect1_dropShadow" result="shape"/>
</filter>
<filter id="filter4_d" x="373.706" y="10.7462" width="88.6285" height="64.2538" filterUnits="userSpaceOnUse" color-interpolation-filters="sRGB">
<feFlood flood-opacity="0" result="BackgroundImageFix"/>
<feColorMatrix in="SourceAlpha" type="matrix" values="0 0 0 0 0 0 0 0 0 0 0 0 0 0 0 0 0 0 127 0"/>
<feOffset dx="10" dy="10"/>
<feGaussianBlur stdDeviation="10"/>
<feColorMatrix type="matrix" values="0 0 0 0 0 0 0 0 0 0 0 0 0 0 0 0 0 0 0.25 0"/>
<feBlend mode="normal" in2="BackgroundImageFix" result="effect1_dropShadow"/>
<feBlend mode="normal" in="SourceGraphic" in2="effect1_dropShadow" result="shape"/>
</filter>
<filter id="filter5_dd" x="383.241" y="20.8583" width="49.4782" height="27.9164" filterUnits="userSpaceOnUse" color-interpolation-filters="sRGB">
<feFlood flood-opacity="0" result="BackgroundImageFix"/>
<feColorMatrix in="SourceAlpha" type="matrix" values="0 0 0 0 0 0 0 0 0 0 0 0 0 0 0 0 0 0 127 0"/>
<feOffset dy="4"/>
<feGaussianBlur stdDeviation="2"/>
<feColorMatrix type="matrix" values="0 0 0 0 0 0 0 0 0 0 0 0 0 0 0 0 0 0 0.25 0"/>
<feBlend mode="normal" in2="BackgroundImageFix" result="effect1_dropShadow"/>
<feColorMatrix in="SourceAlpha" type="matrix" values="0 0 0 0 0 0 0 0 0 0 0 0 0 0 0 0 0 0 127 0"/>
<feOffset dy="4"/>
<feGaussianBlur stdDeviation="2"/>
<feColorMatrix type="matrix" values="0 0 0 0 0 0 0 0 0 0 0 0 0 0 0 0 0 0 0.25 0"/>
<feBlend mode="normal" in2="effect1_dropShadow" result="effect2_dropShadow"/>
<feBlend mode="normal" in="SourceGraphic" in2="effect2_dropShadow" result="shape"/>
</filter>
<filter id="filter6_d" x="-23" y="70" width="210" height="105" filterUnits="userSpaceOnUse" color-interpolation-filters="sRGB">
<feFlood flood-opacity="0" result="BackgroundImageFix"/>
<feColorMatrix in="SourceAlpha" type="matrix" values="0 0 0 0 0 0 0 0 0 0 0 0 0 0 0 0 0 0 127 0"/>
<feOffset dx="10" dy="10"/>
<feGaussianBlur stdDeviation="10"/>
<feColorMatrix type="matrix" values="0 0 0 0 0 0 0 0 0 0 0 0 0 0 0 0 0 0 0.25 0"/>
<feBlend mode="normal" in2="BackgroundImageFix" result="effect1_dropShadow"/>
<feBlend mode="normal" in="SourceGraphic" in2="effect1_dropShadow" result="shape"/>
</filter>
<filter id="filter7_d" x="604.045" y="153.001" width="232.038" height="109.066" filterUnits="userSpaceOnUse" color-interpolation-filters="sRGB">
<feFlood flood-opacity="0" result="BackgroundImageFix"/>
<feColorMatrix in="SourceAlpha" type="matrix" values="0 0 0 0 0 0 0 0 0 0 0 0 0 0 0 0 0 0 127 0"/>
<feOffset dx="10" dy="10"/>
<feGaussianBlur stdDeviation="10"/>
<feColorMatrix type="matrix" values="0 0 0 0 0 0 0 0 0 0 0 0 0 0 0 0 0 0 0.25 0"/>
<feBlend mode="normal" in2="BackgroundImageFix" result="effect1_dropShadow"/>
<feBlend mode="normal" in="SourceGraphic" in2="effect1_dropShadow" result="shape"/>
</filter>
<filter id="filter8_d" x="82.8376" y="138.341" width="548.993" height="261.582" filterUnits="userSpaceOnUse" color-interpolation-filters="sRGB">
<feFlood flood-opacity="0" result="BackgroundImageFix"/>
<feColorMatrix in="SourceAlpha" type="matrix" values="0 0 0 0 0 0 0 0 0 0 0 0 0 0 0 0 0 0 127 0"/>
<feOffset dx="10" dy="10"/>
<feGaussianBlur stdDeviation="10"/>
<feColorMatrix type="matrix" values="0 0 0 0 0 0 0 0 0 0 0 0 0 0 0 0 0 0 0.25 0"/>
<feBlend mode="normal" in2="BackgroundImageFix" result="effect1_dropShadow"/>
<feBlend mode="normal" in="SourceGraphic" in2="effect1_dropShadow" result="shape"/>
</filter>
<filter id="filter9_d" x="345.497" y="309.403" width="85.1709" height="62.7884" filterUnits="userSpaceOnUse" color-interpolation-filters="sRGB">
<feFlood flood-opacity="0" result="BackgroundImageFix"/>
<feColorMatrix in="SourceAlpha" type="matrix" values="0 0 0 0 0 0 0 0 0 0 0 0 0 0 0 0 0 0 127 0"/>
<feOffset dx="10" dy="10"/>
<feGaussianBlur stdDeviation="10"/>
<feColorMatrix type="matrix" values="0 0 0 0 0 0 0 0 0 0 0 0 0 0 0 0 0 0 0.25 0"/>
<feBlend mode="normal" in2="BackgroundImageFix" result="effect1_dropShadow"/>
<feBlend mode="normal" in="SourceGraphic" in2="effect1_dropShadow" result="shape"/>
</filter>
<filter id="filter10_d" x="109.366" y="165.209" width="245.199" height="188.364" filterUnits="userSpaceOnUse" color-interpolation-filters="sRGB">
<feFlood flood-opacity="0" result="BackgroundImageFix"/>
<feColorMatrix in="SourceAlpha" type="matrix" values="0 0 0 0 0 0 0 0 0 0 0 0 0 0 0 0 0 0 127 0"/>
<feOffset dx="10" dy="10"/>
<feGaussianBlur stdDeviation="10"/>
<feColorMatrix type="matrix" values="0 0 0 0 0 0 0 0 0 0 0 0 0 0 0 0 0 0 0.25 0"/>
<feBlend mode="normal" in2="BackgroundImageFix" result="effect1_dropShadow"/>
<feBlend mode="normal" in="SourceGraphic" in2="effect1_dropShadow" result="shape"/>
</filter>
<filter id="filter11_d" x="398.485" y="190.275" width="236.365" height="111.499" filterUnits="userSpaceOnUse" color-interpolation-filters="sRGB">
<feFlood flood-opacity="0" result="BackgroundImageFix"/>
<feColorMatrix in="SourceAlpha" type="matrix" values="0 0 0 0 0 0 0 0 0 0 0 0 0 0 0 0 0 0 127 0"/>
<feOffset dx="10" dy="10"/>
<feGaussianBlur stdDeviation="10"/>
<feColorMatrix type="matrix" values="0 0 0 0 0 0 0 0 0 0 0 0 0 0 0 0 0 0 0.25 0"/>
<feBlend mode="normal" in2="BackgroundImageFix" result="effect1_dropShadow"/>
<feBlend mode="normal" in="SourceGraphic" in2="effect1_dropShadow" result="shape"/>
</filter>
<filter id="filter12_d" x="430.871" y="201.896" width="183.468" height="85.2961" filterUnits="userSpaceOnUse" color-interpolation-filters="sRGB">
<feFlood flood-opacity="0" result="BackgroundImageFix"/>
<feColorMatrix in="SourceAlpha" type="matrix" values="0 0 0 0 0 0 0 0 0 0 0 0 0 0 0 0 0 0 127 0"/>
<feOffset dx="10" dy="10"/>
<feGaussianBlur stdDeviation="10"/>
<feColorMatrix type="matrix" values="0 0 0 0 0 0 0 0 0 0 0 0 0 0 0 0 0 0 0.25 0"/>
<feBlend mode="normal" in2="BackgroundImageFix" result="effect1_dropShadow"/>
<feBlend mode="normal" in="SourceGraphic" in2="effect1_dropShadow" result="shape"/>
</filter>
<linearGradient id="paint0_linear" x1="1010.95" y1="-97.0786" x2="1011.26" y2="377.933" gradientUnits="userSpaceOnUse">
<stop stop-color="#FFF9F9" stop-opacity="0.4"/>
<stop offset="1" stop-color="#C4C4C4" stop-opacity="0"/>
</linearGradient>
<linearGradient id="paint1_linear" x1="6.67428" y1="0" x2="6.67428" y2="43.1391" gradientUnits="userSpaceOnUse">
<stop stop-color="#C1ADAD"/>
<stop offset="1" stop-color="white" stop-opacity="0"/>
</linearGradient>
<linearGradient id="paint2_linear" x1="79.4763" y1="0" x2="79.4763" y2="155.699" gradientUnits="userSpaceOnUse">
<stop stop-color="#FEFEFE"/>
<stop offset="1" stop-color="#C4C4C4" stop-opacity="0"/>
</linearGradient>
<clipPath id="clip0">
<rect width="105.677" height="16.6175" transform="matrix(0.998754 -0.0569116 0.384914 0.923827 151.847 269.705)" fill="white"/>
</clipPath>
</defs>
</svg>
