<svg svg id="space2" data-name="Layer 1" xmlns="http://www.w3.org/2000/svg"
    width="400px" height="400px" viewBox="0 0 672.5315 738.39398">
        <circle cx="336.97785" cy="450.70425" r="42.01233" fill="#2f2e41" />
    <rect x="565.93651" y="563.55388" width="22.86756" height="12.76328"
        transform="translate(-457.82019 238.05835) rotate(-26.60099)" fill="#2f2e41" />
    <ellipse cx="563.82041" cy="573.74843" rx="3.98853" ry="10.63605"
        transform="translate(-489.27546 647.82906) rotate(-56.60122)" fill="#2f2e41" />
    <rect x="617.67227" y="558.50174" width="12.76328" height="22.86756"
        transform="translate(-428.72163 791.92555) rotate(-63.39901)" fill="#2f2e41" />
    <ellipse cx="637.60379" cy="573.74843" rx="10.63605" ry="3.98853"
        transform="translate(-474.26735 364.92328) rotate(-33.39878)" fill="#2f2e41" />
    <circle cx="334.03663" cy="440.42779" r="14.35864" fill="#fff" />
    <ellipse cx="597.86951" cy="515.08401" rx="4.76624" ry="4.8"
        transform="translate(-452.84172 492.81919) rotate(-45)" fill="#3f3d56" />
    <path
        d="M633.854,485.80233c.63177-15.55359-12.77314-28.7276-29.9408-29.42493s-31.59692,11.346-32.22873,26.8996,11.30191,19.08746,28.46958,19.78485S633.22214,501.35592,633.854,485.80233Z"
        transform="translate(-263.73425 -80.80301)" fill="#78af9f" />
    <ellipse cx="644.38811" cy="537.56776" rx="6.59448" ry="21.00616"
        transform="translate(-458.4377 468.61755) rotate(-40.64516)" fill="#2f2e41" />
    <ellipse cx="557.15365" cy="537.56776" rx="21.00616" ry="6.59448"
        transform="translate(-477.37906 529.35274) rotate(-49.35484)" fill="#2f2e41" />
    <path
        d="M612.25083,548.0638a9.57244,9.57244,0,0,1-18.83533,3.42884l-.00336-.0185c-.94177-5.20214,3.08039-7.043,8.28254-7.98474S611.30912,542.86166,612.25083,548.0638Z"
        transform="translate(-263.73425 -80.80301)" fill="#fff" />
    <path
        d="M529.73425,576.197a2.0001,2.0001,0,0,1-2-2v-118a2,2,0,0,1,4,0v118A2.0001,2.0001,0,0,1,529.73425,576.197Z"
        transform="translate(-263.73425 -80.80301)" fill="#ccc" />
    <path
        d="M499.73425,682.197a2.0001,2.0001,0,0,1-2-2v-86a2,2,0,1,1,4,0v86A2.0001,2.0001,0,0,1,499.73425,682.197Z"
        transform="translate(-263.73425 -80.80301)" fill="#ccc" />
    <path
        d="M576.73425,611.197a2.0001,2.0001,0,0,1-2-2v-118a2,2,0,1,1,4,0v118A2.0001,2.0001,0,0,1,576.73425,611.197Z"
        transform="translate(-263.73425 -80.80301)" fill="#ccc" />
    <path
        d="M547.73425,696.197a2.0001,2.0001,0,0,1-2-2v-48a2,2,0,1,1,4,0v48A2.0001,2.0001,0,0,1,547.73425,696.197Z"
        transform="translate(-263.73425 -80.80301)" fill="#ccc" />
    <path
        d="M588.73425,450.197a2.0001,2.0001,0,0,1-2-2v-48a2,2,0,0,1,4,0v48A2.0001,2.0001,0,0,1,588.73425,450.197Z"
        transform="translate(-263.73425 -80.80301)" fill="#ccc" />
    <path
        d="M488.73425,471.197a2.0001,2.0001,0,0,1-2-2v-48a2,2,0,0,1,4,0v48A2.0001,2.0001,0,0,1,488.73425,471.197Z"
        transform="translate(-263.73425 -80.80301)" fill="#ccc" />
    <path
        d="M662.73425,476.197a2.0001,2.0001,0,0,1-2-2v-48a2,2,0,1,1,4,0v48A2.0001,2.0001,0,0,1,662.73425,476.197Z"
        transform="translate(-263.73425 -80.80301)" fill="#ccc" />
    <path
        d="M658.73425,626.197a2.0001,2.0001,0,0,1-2-2v-58a2,2,0,1,1,4,0v58A2.0001,2.0001,0,0,1,658.73425,626.197Z"
        transform="translate(-263.73425 -80.80301)" fill="#ccc" />
    <path
        d="M618.73425,677.197a2.0001,2.0001,0,0,1-2-2v-86a2,2,0,1,1,4,0v86A2.0001,2.0001,0,0,1,618.73425,677.197Z"
        transform="translate(-263.73425 -80.80301)" fill="#ccc" />
    <path
        d="M626.73425,530.197a2.0001,2.0001,0,0,1-2-2v-118a2,2,0,1,1,4,0v118A2.0001,2.0001,0,0,1,626.73425,530.197Z"
        transform="translate(-263.73425 -80.80301)" fill="#ccc" />
    <ellipse cx="858.10361" cy="764.78333" rx="6.76007" ry="21.53369"
        transform="translate(-554.53185 648.46489) rotate(-39.93837)" fill="#2f2e41" />
    <circle cx="812.2965" cy="757.30544" r="43.06733"
        transform="translate(-426.75153 1207.63346) rotate(-71.56505)" fill="#2f2e41" />
    <rect x="553.7073" y="710.30199" width="13.08374" height="23.44171" fill="#2f2e41" />
    <rect x="527.53982" y="710.30199" width="13.08374" height="23.44171" fill="#2f2e41" />
    <ellipse cx="555.8879" cy="734.01629" rx="10.90314" ry="4.08868" fill="#2f2e41" />
    <ellipse cx="529.72042" cy="733.47115" rx="10.90314" ry="4.08868" fill="#2f2e41" />
    <path
        d="M798.77365,703.16853c3.84557-15.487,20.82057-24.60076,37.91471-20.35617s27.83428,20.24028,23.98871,35.72729-16.60394,15.537-33.69809,11.29233S794.92806,718.65557,798.77365,703.16853Z"
        transform="translate(-263.73425 -80.80301)" fill="#ccc" />
    <ellipse cx="763.7883" cy="737.32189" rx="6.76007" ry="21.53369"
        transform="translate(-493.44249 1030.65892) rotate(-64.62574)" fill="#2f2e41" />
    <circle cx="542.12366" cy="667.41487" r="14.35864" fill="#fff" />
    <circle cx="536.22229" cy="662.26808" r="4.78622" fill="#3f3d56" />
    <circle cx="542" cy="697.39398" r="6" fill="#fff" />
    <path d="M935.26575,819.197h-236a1,1,0,0,1,0-2h236a1,1,0,0,1,0,2Z"
        transform="translate(-263.73425 -80.80301)" fill="#3f3d56" />

    </svg>