    <svg id="space2" class="heading-primary-main" data-name="Layer 1" xmlns="http://www.w3.org/2000/svg" width="400px"
        height="400px" viewBox="0 0 672.5315 738.39398">
        <path
            d="M730.73425,230.607c-46.62012-7.44-99.71-11.41-155-11.41-50.6001,0-99.3501,3.32-142.98,9.58.01026-.67005.02-1.34.04981-2.01a148.99943,148.99943,0,0,1,297.91015,1.82C730.72449,229.267,730.73425,229.937,730.73425,230.607Z"
            transform="translate(-263.73425 -80.80301)" fill="#78af9f" />
        <g opacity="0.1">
            <path
                d="M601.28454,82.14432A149.04745,149.04745,0,0,0,432.35339,225.373c-.03027.67-.04,1.34-.0498,2.01,12.96191-1.85981,26.38476-3.4535,40.165-4.78431A149.02172,149.02172,0,0,1,601.28454,82.14432Z"
                transform="translate(-263.73425 -80.80301)" fill="#fff" />
        </g>
    </svg>
